<svg width="149" height="179" viewBox="0 0 149 179" fill="none" xmlns="http://www.w3.org/2000/svg">
<mask id="mask0_483_1078" style="mask-type:luminance" maskUnits="userSpaceOnUse" x="0" y="0" width="149" height="179">
<path d="M0 0H148.168V178.298H0V0Z" fill="white"/>
</mask>
<g mask="url(#mask0_483_1078)">
<path d="M147.917 137.369C147.917 138.668 147.934 139.967 147.922 141.267C147.917 141.924 147.795 142.559 147.714 143.207C147.646 143.787 147.643 144.374 147.605 144.955C147.567 145.59 147.515 146.222 147.434 146.847C147.355 147.449 147.193 148.046 147.143 148.646C147.092 149.231 147.143 149.81 147.032 150.39C146.923 150.936 146.748 151.449 146.674 152.003C146.343 154.488 145.643 156.977 144.899 159.37C144.519 160.589 144.235 161.829 143.841 163.044C143.456 164.238 143.041 165.416 142.604 166.588C142.397 167.142 142.143 167.603 141.83 168.099C141.572 168.51 141.602 169.06 141.347 169.5C141.076 169.975 140.666 170.352 140.357 170.8C140.064 171.218 139.844 171.688 139.621 172.146C139.103 173.209 138.422 174.216 137.947 175.296C137.727 175.791 137.618 176.29 137.309 176.751C137.122 177.031 136.915 177.302 136.699 177.568C136.648 177.785 136.5 177.975 136.251 178.068C136.009 178.255 135.738 178.26 135.51 178.154C132.178 178.39 128.796 178.26 125.459 178.263C122.009 178.263 118.555 178.263 115.104 178.268C102.633 178.271 90.1608 178.276 77.6888 178.279C71.4928 178.284 65.2899 178.289 59.0889 178.289L49.6778 178.293C48.1288 178.293 46.5788 178.293 45.0248 178.298C43.4368 178.298 41.8458 178.327 40.2668 178.124C39.8598 178.068 39.6318 177.806 39.5808 177.519C39.4068 177.243 39.3908 176.884 39.7078 176.596C39.8978 176.422 39.9118 175.964 39.9498 175.701C40.0338 175.123 40.2128 174.602 40.3678 174.038C40.5418 173.421 40.6058 172.776 40.6988 172.141C40.7828 171.557 40.9398 170.982 41.0078 170.393C41.0788 169.775 41.1008 169.161 41.1978 168.543C41.2908 167.929 41.4058 167.324 41.4528 166.705C41.5588 165.33 41.7699 164.01 42.0069 162.654C42.2149 161.448 42.1668 160.216 42.3588 159.006C42.5058 158.087 42.7439 157.185 42.9209 156.271C42.8149 156.483 42.7098 156.699 42.6328 156.927C42.3408 157.769 41.9169 158.536 41.5589 159.348C41.2029 160.152 41.0028 161.02 40.6738 161.837C40.3268 162.692 39.9249 163.511 39.5889 164.369C39.2799 165.166 38.7388 165.801 38.3868 166.57C38.0398 167.34 37.7868 168.154 37.3628 168.887C37.1598 169.25 36.8918 169.563 36.7228 169.945C36.5678 170.301 36.4619 170.678 36.2699 171.015C35.8439 171.79 35.1238 172.404 34.5308 173.047C33.9678 173.666 33.6078 174.352 32.8588 174.784C32.5108 174.979 32.1288 175.131 31.8168 175.376C31.5078 175.622 31.2408 175.883 30.8938 176.07C30.1018 176.493 29.2928 176.922 28.4808 177.302C27.6648 177.682 26.8688 178.056 25.9578 178.144C25.0858 178.233 24.1968 178.089 23.3418 177.912C22.5758 177.755 21.7678 177.625 21.0298 177.353C20.1698 177.031 19.5348 176.46 18.9318 175.791C18.3508 175.152 17.6948 174.613 17.0758 174.016C16.7468 173.704 16.4868 173.335 16.1698 173.014C15.8998 172.735 15.6128 172.485 15.3788 172.171C14.8778 171.503 14.4298 170.749 13.9948 170.038C13.5338 169.28 13.0298 168.556 12.5428 167.815C12.2968 167.443 12.0848 167.061 11.9198 166.651C11.7808 166.295 11.6998 165.945 11.5018 165.617C11.0728 164.924 10.7638 164.162 10.3838 163.443C9.95983 162.634 9.67284 161.769 9.31184 160.933C8.95684 160.114 8.54683 159.319 8.23683 158.48C7.91483 157.609 7.66984 156.716 7.33884 155.848C6.99984 154.955 6.64184 154.065 6.34084 153.159C6.04784 152.287 5.76483 151.416 5.45883 150.548C5.15483 149.671 5.00783 148.762 4.80383 147.859C4.58783 146.876 4.28284 145.937 4.00384 144.976C3.76184 144.121 3.79684 143.215 3.55084 142.364C3.05084 140.629 2.84784 138.808 2.46284 137.039C2.25884 136.095 2.14484 135.134 1.96684 134.189C1.78984 133.24 1.45883 132.352 1.23083 131.416C1.01083 130.507 0.993835 129.652 1.15984 128.727C1.29884 127.949 1.27684 127.132 1.52284 126.374C1.71884 125.769 2.05284 125.121 2.50084 124.648C2.24784 124.592 2.21783 124.13 2.50883 124.071C3.32583 123.897 4.15284 123.737 4.98984 123.737C5.10484 123.737 5.21884 123.745 5.33284 123.753C5.15984 123.53 5.00285 123.297 4.86385 123.047C4.16885 121.823 3.86784 120.448 3.15184 119.234C2.75884 118.559 2.42084 117.865 2.11984 117.145C1.95984 116.773 1.78984 116.396 1.66684 116.007C1.56084 115.685 1.56084 115.338 1.43384 115.02C1.14584 114.309 0.849834 113.628 0.676834 112.87C0.586834 112.472 0.578833 112.065 0.510833 111.663C0.451833 111.316 0.350844 110.982 0.324844 110.63C0.198844 109.11 1.50684 108.472 2.72084 108.032C3.41984 107.777 4.08784 107.734 4.82384 107.734C5.68384 107.734 6.53883 107.731 7.39883 107.731C8.29683 107.734 9.19484 107.739 10.0908 107.731C10.8908 107.726 11.6368 107.956 12.4238 107.976C13.2248 107.994 14.0318 107.905 14.8288 108.01C15.2468 108.065 15.6588 108.176 16.0768 108.196C16.4408 108.214 16.8048 108.176 17.1698 108.171C17.9578 108.158 18.7148 108.358 19.5018 108.396C20.3188 108.434 21.1408 108.382 21.9578 108.407C22.6558 108.425 23.3958 108.526 24.0148 108.879C24.1368 108.95 24.2478 109.034 24.3538 109.128C24.3618 109.107 24.3698 109.08 24.3838 109.06C24.4548 108.917 24.5568 108.784 24.6548 108.654C24.3368 108.551 24.0988 108.26 24.2428 107.853C24.4458 107.281 24.7608 106.782 25.0598 106.262C25.3688 105.728 25.5988 105.153 25.8648 104.594C26.1278 104.043 26.3598 103.493 26.5468 102.914C26.7198 102.366 26.9648 101.956 27.2918 101.49C27.5998 101.058 27.6728 100.48 27.9088 99.997C28.1768 99.449 28.5028 98.933 28.8238 98.412C29.4368 97.422 29.9468 96.374 30.5978 95.403C31.1768 94.535 32.0038 93.82 32.5108 92.909C32.7738 92.439 32.9348 91.919 33.2308 91.465C33.5098 91.039 33.8228 90.627 34.1238 90.214C35.4698 88.388 36.9128 86.627 38.5138 85.018C39.3608 84.168 40.2038 83.313 41.0508 82.461C41.8248 81.682 42.5738 80.933 43.5258 80.379C44.3998 79.87 45.2708 79.334 46.1588 78.863C47.0948 78.368 48.0638 77.962 48.9918 77.449C50.9808 76.353 53.1538 75.82 55.3288 75.21C57.5938 74.578 59.8678 74.181 62.2178 74.042C62.8398 74.003 63.4398 73.991 64.0448 73.847C64.5358 73.737 65.0188 73.699 65.5228 73.707C66.0958 73.72 66.6708 73.75 67.2468 73.75C67.7888 73.75 68.2499 73.52 68.7829 73.454C69.7569 73.335 70.7338 73.576 71.7108 73.465C72.2718 73.403 72.8688 73.242 73.4358 73.302C73.5918 73.318 73.7488 73.351 73.9058 73.394C73.9438 73.267 74.0198 73.145 74.1458 73.039C74.1508 73.034 74.1558 73.034 74.1558 73.034C74.4848 71.641 75.0648 70.338 75.4668 68.969C75.5808 68.585 75.6458 68.195 75.7808 67.818C75.8988 67.471 76.0338 67.145 76.0818 66.776C76.1228 66.434 76.1608 66.105 76.2718 65.774C76.3098 65.647 76.3519 65.524 76.3949 65.4C76.0609 65.371 75.7298 65.338 75.4038 65.275C73.7998 64.961 72.2838 64.246 70.8018 63.581C69.6078 63.047 68.3598 62.349 67.7788 61.117C67.4668 60.444 67.2599 59.627 67.1059 58.898C67.0219 58.513 66.9668 58.108 67.0378 57.713C67.1028 57.357 67.2879 57.058 67.3089 56.692C67.3309 56.206 67.2628 55.72 67.2878 55.229C67.3138 54.792 67.3768 54.357 67.4318 53.921C67.5428 53.056 67.4318 52.181 67.6268 51.334C68.0548 49.484 67.9578 47.557 67.9908 45.674C68.0068 44.746 68.1728 43.84 68.2288 42.917C68.2828 42.011 68.1558 41.097 68.2448 40.195C68.3428 39.192 68.4788 38.193 68.5548 37.191C68.6258 36.225 68.6168 35.226 68.7878 34.274C68.8638 33.837 68.9779 33.422 68.9809 32.979C68.9859 32.559 68.9859 32.152 69.0459 31.737C69.1929 30.721 69.3879 29.709 69.4939 28.689C69.5909 27.766 69.6378 26.844 69.7778 25.929C69.9118 25.031 70.1368 24.151 70.3538 23.27C70.5408 22.488 70.7518 21.709 71.0858 20.971C71.2678 20.57 71.5258 20.231 71.7378 19.85C71.9328 19.503 72.0498 19.121 72.2798 18.797C72.4918 18.499 72.7448 18.236 72.9778 17.962C72.7448 17.997 72.4868 17.864 72.4738 17.555C72.4318 16.426 72.2998 15.294 72.4058 14.165C72.5088 13.026 72.8808 11.984 73.2818 10.922C73.4688 10.418 73.6258 9.88896 73.9168 9.43196C74.1458 9.07696 74.4298 8.75897 74.7148 8.44497C75.4038 7.67897 75.9549 6.81596 76.6149 6.02396C77.2959 5.20696 78.0548 4.45296 78.8588 3.75496C79.6488 3.06396 80.4918 2.42597 81.3608 1.82897C82.2538 1.21497 83.2688 0.862968 84.3238 0.647968C86.4358 0.215968 88.2558 1.38896 89.5938 2.94696C90.1478 3.58496 90.4409 4.23796 90.6279 5.04996C90.6739 5.26196 90.7198 5.69797 90.9398 5.81597C91.1898 5.94797 91.7538 5.71996 91.9818 5.61696C92.8368 5.23996 93.4938 4.45297 94.2288 3.89397C95.1008 3.22597 96.0498 2.59396 97.0568 2.15396C98.0688 1.70996 99.1358 1.43497 100.174 1.05297C101.155 0.693967 102.142 0.549972 103.171 0.376972C103.721 0.282972 104.272 0.189961 104.831 0.243961C105.339 0.291961 105.833 0.384962 106.338 0.422962C107.163 0.482962 108.077 0.72396 108.826 1.07996C109.542 1.42196 110.093 2.01596 110.419 2.73796C110.812 3.60596 111.252 4.78397 111.011 5.73597C110.88 6.26097 110.791 6.78596 110.731 7.32396C110.685 7.76396 110.596 8.30897 110.745 8.74297C110.93 9.29197 111.532 9.44397 112.048 9.53797C112.663 9.65197 113.293 9.65197 113.915 9.73197C114.867 9.85597 115.749 10.257 116.671 10.507C117.564 10.757 118.384 11.251 119.084 11.861C119.85 12.526 120.205 13.47 120.447 14.44C120.718 15.511 120.552 16.594 120.147 17.611C119.939 18.122 119.681 18.613 119.469 19.126C119.258 19.63 119.054 20.113 118.733 20.556C118.169 21.349 117.654 22.179 116.997 22.893C116.853 23.047 116.713 23.202 116.579 23.364C116.56 23.384 116.536 23.427 116.506 23.478C116.666 23.419 116.883 23.394 117.002 23.376C117.979 23.275 118.761 23.905 119.439 24.524C120.099 25.129 120.981 25.464 121.531 26.195C122.072 26.915 122.332 27.877 122.479 28.752C122.644 29.726 122.72 30.798 122.471 31.763C122.335 32.284 122.11 32.779 121.976 33.303C121.831 33.858 121.675 34.404 121.437 34.93C120.997 35.907 120.286 36.719 119.719 37.622C119.135 38.553 118.644 39.587 118.183 40.589C117.708 41.617 117.602 42.765 117.192 43.823C116.484 45.631 115.871 47.519 114.278 48.76C113.445 49.403 112.492 49.644 111.499 49.937C110.41 50.25 109.322 50.499 108.188 50.526C108.026 50.529 107.895 50.488 107.784 50.423C107.442 51.487 107.065 52.537 106.668 53.577C105.512 56.616 104.08 59.652 101.684 61.921C101.067 62.51 100.351 62.941 99.6238 63.37C98.8778 63.805 98.1288 64.013 97.2988 64.228C96.4108 64.458 95.5338 64.746 94.6308 64.941C94.5218 64.966 94.4108 64.982 94.3018 65.004C94.3018 65.015 94.3048 65.033 94.3098 65.05C94.3948 65.558 94.6439 66.027 94.7829 66.523C94.9589 67.142 95.0428 67.777 95.1648 68.407C95.2658 68.949 95.4178 69.482 95.5178 70.027C95.5668 70.338 95.6018 70.621 95.7158 70.914C95.7998 71.134 95.8928 71.324 95.9228 71.56C95.9278 71.59 95.9408 71.696 95.9478 71.807C97.0788 71.742 98.1668 71.789 99.2928 71.942C100.598 72.116 101.874 72.467 103.176 72.648C103.784 72.733 104.408 72.683 105.021 72.738C105.597 72.789 106.139 72.928 106.696 73.09C107.29 73.259 107.87 73.411 108.487 73.449C109.025 73.479 109.537 73.533 110.055 73.682C111.257 74.024 112.501 74.338 113.67 74.773C114.707 75.159 115.82 75.413 116.761 75.997C117.247 76.293 117.771 76.382 118.279 76.624C118.771 76.86 119.168 77.237 119.643 77.5C120.172 77.796 120.764 77.948 121.282 78.271C121.746 78.562 122.158 78.927 122.59 79.256C123.564 80.002 124.604 80.654 125.608 81.352C126.56 82.016 127.361 82.852 128.278 83.568C130.218 85.074 131.733 87.169 133.253 89.087C134.739 90.958 136.289 92.812 137.491 94.887C138.07 95.899 138.438 97.015 139.044 98.007C139.345 98.494 139.565 98.993 139.763 99.527C139.955 100.038 140.213 100.488 140.476 100.961C141.073 102.041 141.651 103.172 141.974 104.369C142.131 104.971 142.363 105.449 142.639 105.995C142.91 106.534 143.027 107.088 143.189 107.658C143.523 108.827 144.167 109.864 144.459 111.053C144.759 112.274 145.089 113.462 145.458 114.661C146.202 117.107 146.875 119.508 147.087 122.07C147.198 123.356 147.418 124.618 147.431 125.913C147.439 126.485 147.575 127.031 147.646 127.598C147.727 128.225 147.76 128.86 147.806 129.486C148.007 132.106 147.917 134.743 147.917 137.369Z" fill="#F5F5F5"/>
</g>
<path d="M20.6406 146.402C20.7306 146.457 20.6686 146.425 20.6406 146.402Z" fill="#4B4438"/>
<path d="M19.1395 146.434C19.1425 146.434 19.1475 146.432 19.1525 146.432C19.1395 146.43 19.1325 146.432 19.1395 146.434Z" fill="#4B4438"/>
<path d="M146.215 140.824C146.223 142.034 145.997 143.223 145.932 144.431C145.87 145.658 145.704 146.83 145.509 148.037C145.42 148.588 145.45 149.134 145.412 149.684C145.369 150.26 145.137 150.814 145.051 151.389C144.874 152.6 144.633 153.782 144.328 154.971C144.014 156.187 143.718 157.405 143.346 158.607C142.982 159.793 142.723 161.009 142.329 162.181C141.945 163.319 141.558 164.453 141.148 165.589C140.975 166.079 140.826 166.588 140.527 167.02C140.374 167.235 140.231 167.413 140.136 167.663C140.027 167.959 140.049 168.281 139.916 168.569C139.734 168.984 139.354 169.313 139.083 169.674C138.744 170.119 138.486 170.613 138.236 171.117C137.702 172.206 137.097 173.242 136.551 174.317C136.331 174.749 136.255 175.237 136.039 175.663C135.865 176.007 135.625 176.333 135.374 176.634C132.47 176.439 129.528 176.536 126.619 176.532H117.213C116.95 176.532 116.684 176.528 116.421 176.528C116.421 176.528 116.426 176.523 116.429 176.523C116.76 176.206 116.921 175.766 117.064 175.343C117.23 174.863 117.403 174.393 117.569 173.91C117.992 172.659 118.394 171.41 118.716 170.122C118.869 169.525 118.953 168.916 119.093 168.314C119.221 167.76 119.504 167.264 119.545 166.694C119.563 166.426 119.517 166.156 119.55 165.894C119.588 165.589 119.702 165.262 119.783 164.966C119.948 164.361 120.125 163.755 120.258 163.137C120.38 162.566 120.435 161.991 120.497 161.41C120.57 160.754 120.714 160.111 120.717 159.446C120.722 158.874 120.655 158.307 120.727 157.736C120.798 157.134 120.939 156.542 120.934 155.929C120.934 155.386 120.858 154.844 120.888 154.303C120.921 153.693 121.083 153.083 121.141 152.474C121.265 151.245 121.247 150.013 121.213 148.781C121.137 146.23 121.132 143.677 121.126 141.123C121.126 139.777 121.126 138.436 121.121 137.09C121.113 135.81 121.175 134.515 121.104 133.237C121.075 132.665 120.934 132.111 120.874 131.539C120.808 130.917 120.929 130.298 120.888 129.677C120.79 128.39 120.545 127.102 120.324 125.837C120.122 124.651 120.109 123.436 119.829 122.268C119.538 121.033 119.11 119.842 118.91 118.581C118.817 118 118.839 117.4 118.649 116.836C118.429 116.181 118.263 115.533 118.101 114.86C117.767 113.462 117.36 112.027 116.836 110.686C116.6 110.068 116.32 109.466 116.057 108.862C115.824 108.315 115.512 107.837 115.265 107.303C114.991 106.714 114.741 106.253 114.331 105.742C114.131 105.492 114.144 105.224 114.005 104.953C113.886 104.725 113.618 104.597 113.572 104.339C113.509 103.942 112.831 104.03 112.861 104.437C112.896 104.868 113.23 105.08 113.297 105.479C113.4 106.029 113.762 106.355 114.022 106.833C114.266 107.281 114.359 107.79 114.605 108.244C114.893 108.773 115.083 109.351 115.305 109.91C115.748 111.037 116.1 112.179 116.439 113.34C116.782 114.513 116.972 115.741 117.36 116.895C117.531 117.395 117.569 117.836 117.628 118.356C117.696 119.012 117.823 119.66 117.971 120.299C118.258 121.519 118.657 122.683 118.779 123.937C118.898 125.126 119.072 126.293 119.246 127.476C119.333 128.076 119.411 128.678 119.482 129.283C119.558 129.918 119.466 130.527 119.477 131.162C119.49 131.709 119.618 132.246 119.685 132.787C119.77 133.435 119.732 134.092 119.728 134.743V138.635C119.724 141.208 119.694 143.787 119.715 146.365C119.732 148.781 119.914 151.191 119.487 153.582C119.287 154.716 119.509 155.861 119.317 156.998C119.122 158.176 119.262 159.345 119.08 160.517C118.979 161.191 118.94 161.872 118.804 162.54C118.673 163.188 118.487 163.828 118.31 164.463C118.128 165.126 117.995 165.728 117.992 166.418C117.987 167.02 117.637 167.587 117.522 168.179C117.265 169.555 116.926 170.919 116.472 172.247C116.244 172.917 116.006 173.59 115.756 174.254C115.629 174.593 115.566 175.139 115.3 175.392C114.906 175.766 115.037 176.252 115.35 176.528C109.772 176.528 104.192 176.523 98.6112 176.523C86.1392 176.518 73.6722 176.51 61.2022 176.507L50.8392 176.502H45.5502C44.1632 176.498 42.7652 176.469 41.3812 176.566C41.4392 176.239 41.4742 175.905 41.5282 175.592C41.6262 175.047 41.8562 174.534 41.9572 173.983C42.0632 173.381 42.1222 172.773 42.2182 172.168C42.3042 171.633 42.4402 171.112 42.5022 170.575C42.5672 170.005 42.5702 169.424 42.6602 168.852C42.8412 167.693 42.9292 166.542 43.0452 165.373C43.1672 164.149 43.4852 162.963 43.5822 161.736C43.6832 160.469 43.7762 159.267 44.0492 158.024C44.2972 156.855 44.4322 155.69 44.5982 154.515C44.6742 153.951 44.8442 153.405 44.9532 152.849C45.0672 152.241 44.9042 151.609 45.0382 151.012C45.1432 150.531 45.4202 150.132 45.4742 149.628C45.5202 149.167 45.4792 148.722 45.4992 148.265C45.5882 148.054 45.6692 147.837 45.7322 147.622C45.8512 147.199 45.9352 146.767 46.0892 146.352C46.2312 145.962 46.4182 145.606 46.4782 145.188C46.5272 144.836 46.4072 144.489 46.0762 144.345C46.2452 143.286 46.4222 142.228 46.5752 141.175C46.6552 140.612 46.6852 140.043 46.7492 139.476C46.8172 138.871 46.9182 138.304 46.9092 137.69C46.8962 137.11 46.9902 136.61 47.0912 136.043C47.1842 135.501 47.1542 134.955 47.2102 134.414C47.2652 133.855 47.4142 133.335 47.4042 132.767C47.3922 132.192 47.3742 131.628 47.4302 131.052C47.4852 130.469 47.5782 129.892 47.6042 129.308C47.6292 128.708 47.5912 128.102 47.6642 127.5C47.7972 126.325 47.8702 125.139 47.9842 123.953C48.0442 123.335 48.1252 122.773 48.2602 122.166C48.4182 121.498 48.2852 120.841 48.3272 120.168C48.3612 119.631 48.5102 119.14 48.5482 118.61C48.5992 118.466 48.6032 118.301 48.5602 118.154C48.5572 117.552 48.6442 116.98 48.6872 116.38C48.7302 115.788 48.8532 115.229 48.9372 114.64C49.0232 114.026 49.0052 113.386 49.0592 112.765C49.1782 111.342 49.1072 109.94 49.0592 108.518C49.0432 108.005 48.2852 108.005 48.2692 108.518C48.2262 109.758 48.2092 110.999 48.0442 112.231C47.9762 112.768 47.9082 113.302 47.8782 113.843C47.8492 114.42 47.7022 114.941 47.6212 115.508C47.5532 115.981 47.5412 116.464 47.4682 116.938C47.4252 117.205 47.4142 117.471 47.4092 117.734C47.1212 117.747 46.8302 117.726 46.5542 117.726H45.1622C44.3182 117.731 43.4302 117.84 42.6002 117.704C42.2102 117.641 41.8292 117.535 41.4362 117.506C41.0092 117.471 40.5862 117.471 40.1632 117.408C39.3162 117.281 38.5192 117.015 37.7022 116.778C36.9442 116.556 36.1442 116.57 35.3872 116.337C34.6032 116.1 33.8242 115.837 33.0622 115.549C31.5722 114.987 30.1502 114.263 28.8422 113.357C28.0762 112.824 27.3092 112.274 26.6192 111.642C26.3612 111.402 26.1062 111.18 25.8242 110.969C25.7292 110.901 25.6122 110.83 25.4962 110.749C25.3872 110.58 25.2812 110.41 25.1792 110.238C25.1162 110.122 25.0482 110.008 24.9772 109.899C25.0232 109.821 25.0532 109.737 25.0562 109.639C25.0562 109.623 25.0532 109.56 25.0562 109.517C25.0612 109.514 25.0612 109.504 25.0702 109.487C25.0732 109.466 25.0782 109.446 25.0862 109.419C25.0912 109.416 25.0942 109.398 25.0992 109.386C25.1082 109.373 25.1132 109.365 25.1132 109.36C25.2052 109.175 25.3362 109.004 25.4222 108.814C25.5062 108.629 25.5612 108.425 25.6202 108.227C25.6452 108.128 25.6782 108.019 25.7052 107.913C25.7262 107.862 25.7562 107.815 25.7812 107.769C25.8532 107.723 25.8862 107.65 25.8862 107.574C26.0062 107.367 26.1362 107.169 26.2552 106.96C26.5352 106.482 26.7412 105.965 26.9782 105.465C27.1942 105.017 27.4142 104.572 27.6012 104.106C27.7862 103.645 27.8762 103.116 28.1342 102.689C28.3542 102.32 28.6462 102.041 28.7992 101.631C28.9852 101.105 29.1342 100.632 29.4122 100.141C29.9252 99.243 30.4842 98.371 30.9912 97.468C31.4912 96.58 32.0282 95.739 32.7032 94.966C33.0152 94.611 33.3332 94.247 33.5912 93.85C33.8572 93.443 34.0112 92.982 34.2312 92.55C34.7172 91.606 35.4712 90.738 36.1192 89.908C36.8012 89.031 37.5172 88.181 38.2572 87.356C39.7392 85.721 41.3332 84.168 42.9142 82.627C43.6422 81.921 44.5052 81.484 45.3852 80.996C46.2662 80.515 47.0832 79.994 48.0012 79.582C48.9912 79.139 49.9062 78.559 50.8852 78.097C51.8372 77.647 52.8742 77.446 53.8782 77.148C56.0582 76.51 58.2602 75.858 60.5242 75.612C61.7532 75.481 63.0432 75.552 64.2452 75.269C65.3962 74.998 66.5602 75.256 67.7242 75.137C68.2582 75.088 68.7252 74.833 69.2672 74.82C69.8082 74.811 70.3502 74.879 70.8912 74.884C71.9712 74.889 73.1732 74.38 74.2412 74.621C74.5592 74.926 75.0272 75.088 75.4332 75.248C75.8952 75.43 76.3532 75.536 76.8392 75.63C77.3472 75.731 77.8432 75.883 78.3512 75.981C78.8502 76.078 79.3462 76.078 79.8502 76.138C80.3322 76.192 80.7852 76.298 81.2762 76.285C81.7072 76.277 82.1362 76.26 82.5722 76.265C83.6342 76.268 84.7092 76.32 85.7642 76.159C86.2852 76.078 86.7922 75.951 87.3082 75.848C87.7782 75.761 88.2532 75.842 88.7112 75.739C89.0942 75.655 89.4472 75.473 89.8402 75.397C90.3402 75.299 90.8222 75.197 91.3092 75.036C92.2912 74.714 93.2782 74.36 94.2172 73.927C94.5222 73.788 94.9632 73.584 95.3022 73.313C95.6452 73.386 96.0002 73.348 96.3422 73.313C96.8902 73.262 97.4442 73.302 97.9892 73.348C99.2762 73.449 100.543 73.69 101.803 73.948C102.396 74.071 102.977 74.198 103.577 74.236C104.192 74.271 104.817 74.228 105.423 74.35C105.97 74.466 106.494 74.659 107.037 74.795C107.612 74.935 108.184 74.977 108.771 75.015C109.357 75.053 109.902 75.261 110.456 75.435C111.072 75.625 111.688 75.802 112.312 75.972C112.819 76.111 113.306 76.293 113.797 76.483C114.343 76.695 114.966 76.806 115.487 77.06C115.927 77.275 116.302 77.59 116.768 77.763C117.002 77.853 117.255 77.886 117.484 77.983C117.767 78.101 118.022 78.304 118.272 78.483C119.17 79.123 120.223 79.4 121.096 80.082C122.068 80.849 123.08 81.552 124.104 82.255C124.554 82.559 125.037 82.852 125.439 83.21C125.862 83.592 126.234 84.007 126.687 84.355C127.661 85.104 128.491 85.899 129.295 86.827C130.907 88.676 132.424 90.611 133.914 92.559C134.611 93.468 135.278 94.399 135.865 95.381C136.459 96.369 136.826 97.448 137.376 98.447C137.623 98.9 137.914 99.31 138.096 99.797C138.299 100.331 138.494 100.852 138.779 101.351C139.362 102.385 139.984 103.464 140.302 104.619C140.454 105.178 140.594 105.728 140.861 106.249C141.14 106.808 141.352 107.299 141.509 107.909C141.805 109.055 142.453 110.068 142.752 111.215C143.062 112.379 143.341 113.539 143.697 114.69C144.057 115.872 144.416 117.058 144.734 118.25C145.073 119.512 145.284 120.765 145.395 122.07C145.496 123.28 145.737 124.482 145.737 125.701C145.737 126.89 146 128.084 146.093 129.275C146.187 130.515 146.215 131.75 146.215 132.999C146.215 135.607 146.204 138.216 146.215 140.824ZM42.2152 153.706C42.0922 154.091 42.0282 154.48 41.9322 154.87C41.8432 155.229 41.6262 155.535 41.4742 155.869C41.3052 156.249 41.1992 156.651 41.0462 157.036C40.8902 157.43 40.6732 157.804 40.4872 158.184C40.1202 158.946 39.8702 159.725 39.5992 160.521C39.3272 161.313 38.9552 162.04 38.6202 162.803C38.4512 163.188 38.3292 163.59 38.1712 163.98C38.0162 164.385 37.7562 164.713 37.5282 165.077C37.1052 165.741 36.8552 166.507 36.5592 167.231C36.2622 167.946 35.7802 168.543 35.4712 169.242C35.3272 169.563 35.2252 169.907 35.0642 170.224C34.8772 170.597 34.5862 170.906 34.3072 171.21C33.7312 171.837 33.2062 172.468 32.6812 173.128C32.2322 173.687 31.4282 173.882 30.8822 174.33C30.2592 174.838 29.5822 175.126 28.8882 175.519C28.1552 175.935 27.3602 176.363 26.5512 176.616C25.7512 176.871 24.8792 176.789 24.0662 176.637C23.3052 176.498 22.5252 176.341 21.7802 176.133C20.9802 175.905 20.4562 175.41 19.9082 174.805C19.3252 174.17 18.6732 173.633 18.0502 173.039C17.7592 172.764 17.5212 172.455 17.2542 172.159C16.9962 171.88 16.6792 171.647 16.4512 171.337C15.9892 170.716 15.5692 170.016 15.1592 169.356C14.7232 168.649 14.2612 167.972 13.7922 167.286C13.5772 166.973 13.3602 166.648 13.2032 166.3C13.0472 165.956 12.9752 165.584 12.8092 165.245C12.6462 164.915 12.4212 164.624 12.2642 164.289C12.0872 163.916 11.9162 163.544 11.7212 163.18C11.3192 162.426 11.0072 161.663 10.6762 160.881C10.3452 160.094 9.96019 159.332 9.62619 158.548C9.27919 157.744 9.0622 156.889 8.7582 156.067C8.4492 155.234 8.1062 154.409 7.7972 153.574C7.4932 152.757 7.2632 151.915 6.9672 151.098C6.6682 150.285 6.39119 149.489 6.21419 148.638C6.01919 147.715 5.82419 146.792 5.56119 145.883C5.31319 145.014 5.0502 144.201 4.9352 143.3C4.8852 142.911 4.8422 142.507 4.7412 142.127C4.6302 141.729 4.46719 141.348 4.40219 140.938C4.13119 139.193 3.7292 137.475 3.4282 135.734C3.2812 134.849 3.1572 133.961 2.9502 133.088C2.7422 132.23 2.3952 131.408 2.2562 130.532C2.1072 129.622 2.39519 128.762 2.46419 127.861C2.51919 127.171 2.62419 126.561 2.97219 125.951C3.11119 125.714 3.2682 125.379 3.5172 125.245C3.7372 125.121 4.02219 125.142 4.26319 125.134C4.64319 125.118 4.80919 124.792 4.76619 124.504C5.37619 124.529 5.97319 124.631 6.57819 124.706C7.95919 124.884 9.3902 124.817 10.7822 124.914C11.4852 124.965 12.1922 124.995 12.8942 125.066C13.6102 125.139 14.3092 125.341 15.0102 125.49C15.6122 125.617 16.2172 125.658 16.8282 125.706C17.4872 125.761 18.1092 125.964 18.7662 126.044C19.3932 126.116 19.9602 126.171 20.5732 126.345C21.2302 126.531 21.8982 126.7 22.5462 126.92C22.9962 127.072 23.4412 127.251 23.8592 127.467C24.1602 127.623 24.7952 127.902 24.8502 128.293C24.8962 128.627 24.4182 128.851 24.1682 128.957C23.6562 129.172 23.1262 129.147 22.5842 129.126C21.2332 129.076 19.9222 129.372 18.5722 129.338C17.7542 129.316 16.9372 129.291 16.1202 129.367C15.3462 129.44 14.5842 129.584 13.8052 129.587C13.0262 129.592 12.2502 129.525 11.4762 129.579C10.7062 129.63 9.95219 129.817 9.17819 129.837C8.50819 129.854 8.5052 130.879 9.17819 130.879C9.80319 130.879 10.3672 131.077 10.9672 131.229C11.6292 131.395 12.3022 131.535 12.9702 131.645C13.5502 131.747 14.1222 131.807 14.7112 131.793C15.3712 131.777 16.0392 131.691 16.7002 131.777C17.3222 131.856 17.9322 132.076 18.5382 132.238C19.2522 132.423 19.9812 132.534 20.7092 132.665C22.0222 132.898 23.3352 133.11 24.6592 133.25C25.2552 133.313 25.8402 133.47 26.3942 133.698C26.6492 133.799 26.8142 133.981 27.0462 134.1C27.2952 134.231 27.5932 134.156 27.8512 134.252C28.3542 134.447 28.4022 135.231 27.9522 135.501C27.7912 135.603 27.6102 135.595 27.4332 135.628C27.1652 135.679 26.9282 135.785 26.6822 135.896C26.1412 136.133 25.6632 136.09 25.0862 136.081C24.4212 136.07 23.7532 136.099 23.0882 136.116C22.4242 136.133 21.7542 136.149 21.0912 136.124C20.7602 136.116 20.4212 136.116 20.0992 136.043C19.8212 135.984 19.5582 135.883 19.2782 135.84C18.8962 135.785 18.5292 135.832 18.1522 135.84C17.7502 135.85 17.3572 135.799 16.9582 135.744C16.2592 135.645 15.5822 135.625 14.8802 135.582C14.1642 135.544 13.4232 135.473 12.7122 135.362C12.0302 135.256 11.4252 134.985 10.7272 135.193C10.3292 135.311 10.2012 135.921 10.6082 136.124C11.5772 136.615 12.6952 136.743 13.7402 137.017C14.9442 137.335 16.1932 137.495 17.4202 137.687C18.5972 137.872 19.7652 138.072 20.9552 138.165C21.5262 138.206 22.1012 138.216 22.6572 138.368C23.1942 138.515 23.7102 138.707 24.2742 138.749C25.2462 138.821 26.1312 138.879 26.9832 139.4C27.1182 139.486 27.2762 139.574 27.3812 139.698C27.5122 139.85 27.5042 139.782 27.4412 139.91C27.2872 140.209 26.6922 140.344 26.3942 140.429C25.9292 140.564 25.4662 140.738 24.9852 140.832C24.4052 140.946 23.8762 140.781 23.3052 140.688C22.1862 140.506 21.0562 140.789 19.9512 140.485C19.3842 140.328 18.8252 140.129 18.2332 140.121C17.9082 140.116 17.5932 140.179 17.2732 140.111C16.9882 140.053 16.7252 139.951 16.4372 139.91C15.7732 139.812 15.1082 139.934 14.4402 139.913C13.7832 139.891 13.1482 139.693 12.4922 139.655C11.9762 139.62 11.7512 140.417 12.2222 140.645C13.7582 141.391 15.4012 141.805 17.0812 142.084C17.9082 142.225 18.7582 142.317 19.5662 142.545C20.3712 142.77 21.1452 143.088 21.9492 143.324C22.6092 143.524 23.2922 143.69 23.9092 143.999C24.2362 144.154 24.5492 144.345 24.8312 144.57C24.8712 144.599 24.9092 144.634 24.9472 144.667C24.9222 144.689 24.9012 144.705 24.8742 144.722C24.6972 144.803 24.5402 144.917 24.3632 144.993C23.6942 145.277 22.9402 145.256 22.2202 145.221C22.1952 145.21 22.1712 145.196 22.1412 145.188C22.0222 145.163 21.8812 145.163 21.7542 145.201C20.9972 145.163 20.2442 145.133 19.4822 145.128C18.4612 145.12 17.4362 145.107 16.4162 145.107C15.9382 145.107 15.4252 145.158 14.9522 145.077C14.4992 145.006 14.0932 144.832 13.6232 144.841C12.8062 144.862 12.8062 146.141 13.6232 146.111C14.0502 146.098 14.4512 146.276 14.8752 146.322C15.3842 146.382 15.9082 146.344 16.4162 146.336C17.2032 146.322 17.9922 146.317 18.7742 146.314C18.7842 146.317 18.7912 146.317 18.7962 146.327C18.9052 146.483 19.0242 146.645 19.1732 146.771C19.2732 146.857 19.3842 146.933 19.4772 147.029C19.4952 147.05 19.5122 147.068 19.5282 147.088C19.5312 147.093 19.5662 147.144 19.5692 147.148C19.6092 147.202 19.6372 147.258 19.6752 147.313C19.7562 147.444 19.8462 147.576 19.9432 147.698C20.0362 147.817 20.1422 147.91 20.2562 148.003C20.3962 148.117 20.5322 148.232 20.6792 148.325C20.8312 148.418 20.9632 148.507 21.1452 148.515C21.1832 148.515 21.2182 148.502 21.2512 148.485C21.3492 148.591 21.4452 148.694 21.5422 148.795C22.0852 149.354 22.5032 150.005 22.9692 150.627C23.9192 151.885 24.8662 153.134 25.7342 154.447C26.1412 155.064 26.3862 155.763 26.7552 156.406C27.1322 157.063 27.5472 157.652 27.7702 158.383C27.8682 158.718 27.9702 159.047 28.1222 159.365C28.2692 159.679 28.4992 159.959 28.6302 160.284C28.8712 160.876 28.8802 161.766 29.7052 161.796C29.9162 161.799 30.0982 161.639 30.1632 161.444C30.2802 161.071 30.0872 160.77 29.9812 160.415C29.8832 160.094 29.7862 159.785 29.6242 159.484C29.4602 159.171 29.2522 158.892 29.1212 158.561C28.9802 158.201 28.9012 157.824 28.7612 157.468C28.4782 156.754 27.9822 156.135 27.6182 155.462C27.2412 154.764 26.9372 154.078 26.4752 153.427C25.5282 152.089 24.5142 150.814 23.5172 149.514C23.0242 148.871 22.5132 148.317 21.9082 147.779C21.5802 147.487 21.2632 147.288 20.9202 147.11C20.9372 147.101 20.9552 147.096 20.9672 147.085C21.1702 146.962 21.1492 146.615 20.9012 146.559C20.8822 146.556 20.8612 146.551 20.8442 146.542C20.8362 146.539 20.8282 146.534 20.8202 146.529V146.534C20.8102 146.529 20.8012 146.521 20.7902 146.513C20.7852 146.513 20.7772 146.504 20.7732 146.499L20.7682 146.496C20.7342 146.475 20.7042 146.453 20.7042 146.45C20.6962 146.441 20.6892 146.441 20.6842 146.433C20.6792 146.433 20.6762 146.433 20.6712 146.428C20.6672 146.423 20.6672 146.423 20.6632 146.42C20.6542 146.415 20.6492 146.412 20.6412 146.407C20.6382 146.403 20.6332 146.398 20.6282 146.398C20.6032 146.374 20.5702 146.352 20.5432 146.331C20.8362 146.347 21.1372 146.365 21.4362 146.377C21.4842 146.445 21.5362 146.513 21.5852 146.572C21.7422 146.759 21.9412 146.911 22.1412 147.055C22.4912 147.313 22.8602 147.592 23.2742 147.75C23.8242 147.953 24.4132 147.834 24.9672 147.723C25.0352 147.712 25.1042 147.698 25.1702 147.69H25.1752C25.2402 147.703 25.3062 147.711 25.3822 147.707C25.6782 147.693 25.9332 147.837 26.2202 147.902C26.6112 147.991 26.9992 147.969 27.3982 147.956C28.2402 147.918 29.0952 147.931 29.9412 147.94C30.7432 147.948 31.5472 148.037 32.3512 147.94C33.1262 147.85 33.8842 147.63 34.6162 147.376C35.8132 146.957 36.7252 146.208 37.2622 145.044C37.5362 144.442 37.8542 143.782 37.9682 143.126C38.1122 142.322 37.8592 141.59 37.5962 140.841C37.3412 140.108 37.1812 139.362 36.8852 138.643C36.5972 137.945 36.2582 137.264 36.0092 136.551C35.7622 135.853 35.5422 135.21 35.1922 134.553C34.8362 133.897 34.6412 133.172 34.2802 132.509C33.5022 131.061 33.1212 129.354 32.5672 127.81C31.9872 126.201 31.2972 124.648 30.7802 123.017C30.5322 122.225 30.2902 121.43 30.0092 120.651C29.7392 119.902 29.3742 119.202 29.0452 118.483C28.7192 117.772 28.4732 117.023 28.1852 116.295C27.8972 115.576 27.5722 114.868 27.2792 114.149C27.1652 113.869 27.0512 113.593 26.9332 113.319C26.9882 113.365 27.0392 113.413 27.0942 113.454C28.4562 114.526 29.9112 115.449 31.4962 116.165C32.2502 116.502 33.0202 116.803 33.8032 117.074C34.6382 117.362 35.4582 117.663 36.3342 117.777C37.2442 117.894 38.0742 118.212 38.9642 118.423C39.8242 118.632 40.6702 118.648 41.5382 118.762C42.0282 118.827 42.4972 118.971 42.9992 118.996C43.5192 119.022 44.0392 118.991 44.5562 118.987C45.0892 118.982 45.6232 118.987 46.1552 118.987C46.5272 118.987 46.9392 118.953 47.3252 118.971C47.2482 119.436 47.1052 119.875 47.1002 120.367C47.0962 120.99 47.1592 121.552 46.9862 122.162C46.8452 122.654 46.8202 123.156 46.7742 123.669C46.7192 124.254 46.6222 124.833 46.5842 125.422C46.5082 126.586 46.3672 127.747 46.3552 128.919C46.3422 130.083 46.0842 131.226 46.1172 132.394C46.1342 132.919 46.0842 133.376 45.9982 133.889C45.8972 134.461 45.9352 135.039 45.8642 135.612C45.8052 136.108 45.6392 136.577 45.6152 137.077C45.5802 137.704 45.6152 138.301 45.5202 138.922C45.4362 139.486 45.4062 140.057 45.3432 140.621C45.2762 141.208 45.1232 141.785 45.0312 142.369C44.8562 143.486 44.6842 144.599 44.4972 145.712C44.4112 146.203 44.3992 146.703 44.3152 147.199C44.3102 147.237 44.3022 147.28 44.2932 147.321C44.0682 148.016 43.7312 148.672 43.5362 149.37C43.3382 150.073 43.4092 150.754 43.0912 151.436C42.7472 152.176 42.4612 152.927 42.2152 153.706ZM5.0322 120.507C4.6092 119.186 3.8002 118.056 3.2542 116.79C3.1162 116.456 2.9752 116.122 2.8532 115.778C2.7552 115.498 2.73819 115.224 2.67119 114.941C2.58619 114.613 2.41319 114.339 2.28519 114.035C2.13819 113.682 2.03619 113.302 1.93019 112.933C1.74519 112.269 1.71519 111.582 1.56919 110.906C1.41419 110.178 1.62619 109.733 2.28919 109.408C2.85319 109.132 3.49319 108.862 4.12319 108.827C4.93119 108.781 5.75619 108.822 6.56519 108.822C7.32719 108.822 8.08519 108.827 8.84719 108.827C9.65619 108.827 10.4812 108.759 11.2762 108.917C11.9592 109.047 12.6032 109.074 13.3002 109.064C14.0842 109.052 14.7902 109.137 15.5612 109.251C16.2172 109.348 16.8692 109.272 17.5292 109.297C18.2882 109.327 19.0292 109.522 19.7912 109.547C20.5782 109.576 21.3692 109.525 22.1522 109.576C22.4752 109.598 22.8092 109.644 23.1102 109.758C23.1602 110.076 23.2872 110.312 23.4652 110.583C23.6592 110.884 23.7832 111.207 23.9002 111.541C24.0412 111.938 24.1632 112.345 24.3202 112.735C24.5022 113.18 24.6812 113.682 25.0022 114.054C25.2272 114.317 25.6072 114.594 25.9592 114.44C25.9872 114.428 26.0012 114.407 26.0172 114.385C26.4702 115.452 26.9122 116.523 27.3172 117.603C27.8212 118.944 28.5032 120.203 28.9562 121.562C29.4552 123.069 29.8832 124.592 30.4922 126.062C31.0942 127.509 31.5852 128.99 32.0842 130.477C32.3212 131.167 32.5292 131.883 32.8202 132.556C32.9562 132.876 33.1342 133.177 33.2952 133.49C33.4602 133.808 33.5502 134.138 33.6772 134.469C33.8922 135.044 34.2692 135.549 34.4722 136.128C34.7092 136.819 34.9252 137.495 35.2162 138.165C35.5342 138.893 35.8352 139.612 36.0352 140.379C36.2252 141.115 36.7202 141.945 36.6522 142.716C36.6012 143.343 36.2332 144.045 35.9322 144.594C35.6662 145.082 35.3222 145.467 34.8202 145.704C34.1712 146.01 33.3842 146.187 32.6852 146.331C31.8382 146.509 30.9832 146.407 30.1282 146.382C29.2812 146.355 28.4222 146.347 27.5752 146.369C27.2112 146.382 26.8472 146.433 26.4922 146.339C26.1152 146.241 25.7842 146.111 25.3822 146.127C25.1622 146.136 24.9932 146.222 24.8712 146.344C24.8232 146.347 24.7772 146.352 24.7312 146.355C24.6202 146.377 24.5112 146.398 24.3962 146.42C24.3422 146.428 24.2872 146.441 24.2312 146.45H24.1722C24.0622 146.453 23.9602 146.453 23.8512 146.45C23.8432 146.445 23.8342 146.445 23.8212 146.441C23.7912 146.433 23.7532 146.42 23.7182 146.412C23.6722 146.382 23.6262 146.36 23.5832 146.331C23.5802 146.327 23.5802 146.327 23.5752 146.327C24.0462 146.26 24.4992 146.136 24.9262 145.937C25.4962 145.663 26.3352 145.145 26.0572 144.396C25.8052 143.728 24.8362 143.27 24.2262 143.004C23.4692 142.669 22.6652 142.491 21.8782 142.246C20.9882 141.975 20.1252 141.619 19.2072 141.459C18.7492 141.373 18.2882 141.297 17.8312 141.218C17.8982 141.213 17.9702 141.208 18.0382 141.208C18.6682 141.191 19.2322 141.419 19.8372 141.565C21.0862 141.869 22.3722 141.585 23.6312 141.826C24.7692 142.043 25.7892 141.747 26.8692 141.378C27.5382 141.153 28.5462 140.637 28.4942 139.799C28.4482 139.015 27.4902 138.542 26.8722 138.266C26.4592 138.084 26.0302 137.97 25.5772 137.902C24.9472 137.809 24.3022 137.864 23.6852 137.704C23.1432 137.56 22.6302 137.378 22.0682 137.322C21.3312 137.254 20.5902 137.234 19.8542 137.148C19.1732 137.072 18.4952 136.966 17.8222 136.852C18.3852 136.857 18.9532 136.814 19.4952 136.963C20.8392 137.335 22.3102 137.178 23.6892 137.136C24.3832 137.115 25.0732 137.136 25.7692 137.131C26.3992 137.131 26.8392 136.887 27.4192 136.687C27.8862 136.526 28.3092 136.551 28.6982 136.2C29.1292 135.807 29.3462 135.273 29.2522 134.692C29.1762 134.219 28.9262 133.783 28.5272 133.503C28.2912 133.335 28.0842 133.27 27.8002 133.24C27.4662 133.207 27.3142 133.025 27.0092 132.881C25.7342 132.276 24.3502 132.268 22.9832 132.065C21.4552 131.835 19.9002 131.611 18.4022 131.21C17.6782 131.014 16.9672 130.816 16.2142 130.798C15.4302 130.786 14.6562 130.904 13.8732 130.836C13.4532 130.798 13.0342 130.718 12.6162 130.621C13.0082 130.632 13.4062 130.651 13.8052 130.646C14.5162 130.642 15.2192 130.523 15.9262 130.442C16.7732 130.35 17.6202 130.366 18.4702 130.388C19.2072 130.404 19.9182 130.388 20.6492 130.282C21.4412 130.168 22.1772 130.171 22.9742 130.184C23.9432 130.198 25.1622 129.93 25.7002 129.025C26.9882 126.865 22.4102 125.786 21.2132 125.457C20.5862 125.286 19.9732 125.091 19.3202 125.05C18.6002 125.007 17.9192 124.795 17.2032 124.732C16.4592 124.664 15.7302 124.648 14.9942 124.494C14.2362 124.334 13.4822 124.168 12.7032 124.119C10.9472 124 9.18919 123.945 7.43019 123.94C7.26019 123.94 7.0942 123.927 6.9262 123.91C6.9012 123.856 6.85819 123.796 6.79819 123.742C5.88719 122.898 5.4062 121.663 5.0322 120.507ZM75.5912 71.459C75.8322 70.681 76.1582 69.922 76.3692 69.134C76.4702 68.776 76.5302 68.412 76.6492 68.06C76.7762 67.679 76.9072 67.332 76.9532 66.933C77.0182 66.429 77.1702 65.956 77.2922 65.473C77.5122 65.49 77.7342 65.511 77.9492 65.541C78.8682 65.668 79.7692 65.701 80.6972 65.688C82.6522 65.663 84.6082 65.655 86.5632 65.66C87.5332 65.663 88.4512 65.596 89.4172 65.481C89.8102 65.435 90.2092 65.443 90.6032 65.381C91.0472 65.305 91.4522 65.159 91.9112 65.169C92.3592 65.177 92.7992 65.169 93.2352 65.139C93.2352 65.18 93.2352 65.227 93.2432 65.265C93.2732 65.495 93.3362 65.715 93.4092 65.935C93.6092 66.528 93.7732 67.099 93.8752 67.717C94.0602 68.843 94.2172 69.986 94.4592 71.099C94.4922 71.251 94.5562 71.43 94.5482 71.587C94.5402 71.789 94.4342 71.989 94.4212 72.195V72.263C94.3102 72.323 94.2042 72.386 94.0952 72.445C93.7102 72.653 93.3062 72.801 92.9012 72.944C92.0032 73.262 91.0892 73.588 90.1582 73.799C89.7432 73.897 89.3062 73.923 88.9012 74.059C88.7522 74.105 88.6082 74.195 88.4562 74.233C88.2562 74.279 88.0582 74.233 87.8512 74.236C86.9452 74.254 86.0682 74.6 85.1702 74.681C84.2442 74.765 83.3002 74.702 82.3692 74.694C81.9462 74.689 81.5222 74.714 81.0992 74.711C80.6872 74.702 80.2942 74.596 79.8872 74.55C79.4472 74.502 79.0192 74.494 78.5842 74.401C78.1442 74.304 77.7072 74.185 77.2622 74.097C76.8362 74.016 76.4242 73.937 76.0192 73.783C75.7052 73.669 75.4172 73.503 75.1082 73.403C75.2382 72.746 75.3872 72.098 75.5912 71.459ZM75.9842 64.178C75.1542 64.046 74.3472 63.78 73.5632 63.476C72.3362 63.001 70.9852 62.502 69.8922 61.752C69.4012 61.413 68.9642 60.969 68.7582 60.396C68.5212 59.742 68.2452 58.945 68.1902 58.255C68.1612 57.896 68.3292 57.628 68.4152 57.294C68.5262 56.871 68.4862 56.431 68.4652 56.003C68.4322 55.144 68.5712 54.306 68.6602 53.454C68.7082 53.036 68.6682 52.633 68.6772 52.214C68.6872 51.778 68.8472 51.367 68.9102 50.936C69.0342 50.051 69.1002 49.123 69.1562 48.23C69.2112 47.351 69.1352 46.461 69.1562 45.576C69.1762 44.746 69.3122 43.934 69.3762 43.107C69.4392 42.233 69.3382 41.359 69.3842 40.483C69.4312 39.557 69.5912 38.634 69.6692 37.71C69.7452 36.771 69.7832 35.831 69.8622 34.895C69.8972 34.48 70.0112 34.092 70.0742 33.685C70.1382 33.265 70.1172 32.855 70.1252 32.436C70.1502 31.514 70.3832 30.573 70.5152 29.658C70.6382 28.762 70.6972 27.859 70.7852 26.958C70.9422 25.349 71.3062 23.669 71.8142 22.127C72.0632 21.357 72.5352 20.743 72.8602 20.016C73.1182 19.444 73.5152 19.009 73.8892 18.529C73.9102 18.508 73.9242 18.483 73.9392 18.461C74.0162 18.36 74.0962 18.263 74.1682 18.157C74.1932 18.119 74.2202 18.081 74.2442 18.043C74.3672 17.932 74.5022 17.831 74.6132 17.742C74.9562 17.457 75.3032 17.175 75.6672 16.917C75.7102 16.887 75.7512 16.86 75.7892 16.832C75.8622 16.806 75.9212 16.765 75.9632 16.717C76.5652 16.311 77.1952 15.951 77.8352 15.622C79.3002 14.863 80.8692 14.266 82.4702 13.864C85.5262 13.098 89.0102 13.677 91.6772 15.359C92.3042 15.753 93.0102 16.07 93.5962 16.531C94.2172 17.023 94.6372 17.707 95.0612 18.364C95.4582 18.987 95.8862 19.549 96.4052 20.074C96.6482 20.32 96.9012 20.565 97.0752 20.866C97.2732 21.21 97.3032 21.603 97.4262 21.972C97.5402 22.318 97.7402 22.623 97.8792 22.958C98.0492 23.354 98.1602 23.778 98.3232 24.181C98.6162 24.909 98.7822 25.671 99.0942 26.395C99.4002 27.102 99.7892 27.771 100.144 28.456C100.495 29.134 100.758 29.853 101.105 30.531C101.864 32.005 102.942 33.333 104.313 34.277C105.886 35.357 107.65 36.122 109.297 37.075C109.471 37.177 109.639 37.191 109.783 37.143C109.983 37.172 110.203 37.088 110.258 36.863C110.494 35.836 111.444 34.718 112.514 34.485C113.001 34.374 113.39 34.654 113.648 35.052C113.962 35.539 113.881 36.208 113.838 36.754C113.789 37.381 113.484 37.973 113.301 38.566C113.102 39.205 112.79 39.777 112.437 40.344C112.434 40.356 112.434 40.352 112.429 40.361C112.391 40.407 112.353 40.45 112.315 40.496C112.214 40.61 112.108 40.721 111.998 40.83C111.74 41.088 111.465 41.356 111.164 41.571C110.847 41.809 110.499 42.008 110.182 42.092C110.253 41.677 110.291 41.259 110.288 40.835C110.283 39.98 108.955 39.98 108.958 40.835C108.975 42.51 108.196 44.035 107.73 45.609C107.227 47.313 106.888 49.047 106.316 50.737C105.343 53.633 104.263 56.586 102.481 59.098C102.033 59.728 101.533 60.317 100.988 60.863C100.389 61.455 99.7182 61.878 98.9972 62.306C98.2942 62.725 97.5742 62.89 96.7952 63.102C95.9372 63.34 95.0862 63.619 94.2142 63.805C94.0982 63.831 93.9892 63.843 93.8752 63.861C93.8702 63.851 93.8622 63.843 93.8542 63.834C93.6632 63.614 93.3242 63.657 93.1242 63.834C93.0832 63.869 93.0402 63.907 92.9992 63.945C92.5542 63.967 92.1062 63.962 91.6432 63.988C91.2922 64.005 90.9632 64.089 90.6242 64.168C90.1962 64.266 89.7562 64.258 89.3242 64.312C87.4992 64.534 85.6752 64.478 83.8372 64.483C82.0682 64.486 80.2312 64.648 78.4752 64.428C77.6482 64.322 76.8062 64.306 75.9842 64.178ZM73.4232 14.263C73.5282 13.161 73.9442 12.141 74.3422 11.121C74.5162 10.676 74.6512 10.231 74.9262 9.84197C75.2182 9.43597 75.5822 9.09296 75.9052 8.71596C76.5432 7.96196 77.0592 7.11996 77.7162 6.37996C79.0322 4.89796 80.6242 3.45796 82.3472 2.46396C83.1862 1.97596 84.3532 1.57897 85.3322 1.59197C86.3912 1.59997 87.2792 2.23497 88.0332 2.90897C88.6932 3.49697 89.3062 4.12696 89.5092 5.00696C89.6452 5.58396 89.7382 6.22696 90.2222 6.62596C90.8222 7.12396 91.7452 6.89196 92.3932 6.61296C93.1922 6.27396 93.7992 5.64697 94.4562 5.10097C95.2632 4.42797 96.1742 3.82296 97.1132 3.34496C98.0612 2.85696 99.1122 2.60396 100.119 2.25496C101.088 1.92596 102.006 1.68496 103.023 1.54096C103.509 1.46796 103.992 1.35397 104.488 1.35897C105.017 1.36197 105.538 1.51097 106.063 1.55297C106.845 1.61197 107.769 1.79096 108.459 2.18796C109.208 2.62096 109.491 3.42397 109.711 4.21697C109.838 4.67797 109.965 5.09596 109.843 5.56296C109.707 6.07496 109.644 6.61296 109.58 7.13396C109.479 7.93196 109.385 8.85197 109.83 9.56797C110.521 10.676 112.011 10.74 113.17 10.833C113.929 10.892 114.592 11.061 115.312 11.311C116.252 11.637 117.124 11.828 117.938 12.442C118.75 13.055 119.067 13.881 119.27 14.86C119.487 15.896 119.067 16.938 118.614 17.861C118.381 18.331 118.212 18.833 117.971 19.3C117.739 19.744 117.412 20.122 117.111 20.523C116.828 20.904 116.611 21.327 116.294 21.683C116.061 21.945 115.808 22.195 115.583 22.466C115.097 23.05 114.605 23.88 115.27 24.545C115.561 24.836 116.006 24.993 116.413 24.939C116.836 24.879 117.104 24.586 117.542 24.757C117.911 24.901 118.207 25.205 118.492 25.468C118.834 25.789 119.191 26.073 119.588 26.323C119.927 26.534 120.261 26.734 120.486 27.072C120.727 27.441 120.853 27.88 120.964 28.304C121.192 29.169 121.29 30.095 121.18 30.988C121.121 31.449 120.921 31.864 120.769 32.301C120.587 32.833 120.481 33.392 120.294 33.926C119.965 34.862 119.317 35.641 118.758 36.45C118.162 37.321 117.696 38.29 117.222 39.239C116.98 39.726 116.73 40.222 116.553 40.738C116.378 41.237 116.302 41.758 116.176 42.266C115.913 43.286 115.465 44.29 115.064 45.259C114.749 46.024 114.296 46.757 113.683 47.321C112.983 47.968 112.155 48.149 111.262 48.391C110.261 48.659 109.279 48.895 108.242 48.903L108.331 48.599C108.581 47.693 108.755 46.77 109.031 45.872C109.251 45.156 109.52 44.458 109.754 43.742C109.826 43.752 109.897 43.756 109.965 43.752C110.521 43.731 110.977 43.384 111.404 43.066C112.158 42.504 112.958 41.829 113.493 41.047C113.932 40.399 114.266 39.636 114.483 38.892C114.72 38.07 115.007 37.338 115.029 36.475C115.054 35.661 114.987 34.9 114.462 34.249C114.017 33.693 113.378 33.3 112.646 33.351C111.303 33.443 110.185 34.566 109.699 35.815C108.264 35.001 106.76 34.298 105.368 33.414C103.992 32.545 102.959 31.318 102.215 29.878C101.851 29.175 101.58 28.431 101.207 27.728C100.817 26.992 100.377 26.271 100.09 25.484C99.9592 25.112 99.8782 24.724 99.7472 24.35C99.6022 23.951 99.4202 23.566 99.2812 23.169C99.1372 22.759 98.9972 22.382 98.8062 21.992C98.6082 21.595 98.5532 21.175 98.4042 20.76C98.1472 20.057 97.6212 19.554 97.1012 19.037C96.5332 18.483 96.1362 17.818 95.6912 17.17C95.2382 16.515 94.7432 15.921 94.0872 15.46C93.4342 14.998 92.6982 14.63 92.0112 14.225C89.2652 12.607 85.6452 12.005 82.5382 12.764C80.6842 13.216 78.8582 13.978 77.1912 14.906C76.6572 15.199 76.1412 15.516 75.6422 15.858C75.5692 15.84 75.4902 15.834 75.4052 15.85C74.6842 15.968 74.1062 16.475 73.6642 17.031C73.5502 17.175 73.4442 17.327 73.3382 17.484C73.3652 16.409 73.3222 15.329 73.4232 14.263ZM147.803 129.486C147.756 128.86 147.723 128.225 147.642 127.598C147.571 127.031 147.436 126.485 147.427 125.913C147.414 124.618 147.194 123.356 147.083 122.07C146.872 119.508 146.199 117.107 145.455 114.661C145.086 113.462 144.755 112.274 144.454 111.053C144.163 109.864 143.52 108.827 143.184 107.658C143.024 107.088 142.906 106.534 142.635 105.995C142.359 105.449 142.126 104.971 141.97 104.369C141.648 103.172 141.067 102.041 140.472 100.961C140.209 100.488 139.951 100.038 139.759 99.527C139.561 98.993 139.341 98.494 139.04 98.007C138.435 97.015 138.066 95.899 137.487 94.887C136.285 92.812 134.735 90.958 133.249 89.087C131.729 87.169 130.214 85.074 128.275 83.568C127.357 82.852 126.556 82.016 125.604 81.352C124.6 80.654 123.56 80.002 122.586 79.256C122.154 78.927 121.743 78.562 121.276 78.271C120.76 77.948 120.168 77.796 119.639 77.5C119.165 77.237 118.768 76.86 118.275 76.624C117.767 76.382 117.243 76.293 116.757 75.997C115.816 75.413 114.703 75.159 113.666 74.773C112.497 74.338 111.253 74.024 110.05 73.682C109.534 73.533 109.021 73.479 108.484 73.449C107.867 73.411 107.286 73.259 106.693 73.09C106.134 72.928 105.593 72.789 105.017 72.738C104.404 72.683 103.781 72.733 103.17 72.648C101.871 72.467 100.594 72.116 99.2892 71.942C98.1632 71.789 97.0752 71.742 95.9442 71.807C95.9372 71.696 95.9242 71.59 95.9192 71.56C95.8892 71.324 95.7972 71.134 95.7122 70.914C95.5982 70.621 95.5642 70.338 95.5142 70.027C95.4152 69.482 95.2632 68.949 95.1622 68.407C95.0392 67.777 94.9552 67.142 94.7802 66.523C94.6412 66.027 94.3912 65.558 94.3072 65.05C94.3022 65.033 94.2982 65.015 94.2982 65.004C94.4082 64.982 94.5182 64.966 94.6282 64.941C95.5292 64.746 96.4052 64.458 97.2952 64.228C98.1252 64.013 98.8742 63.805 99.6202 63.37C100.348 62.941 101.062 62.51 101.68 61.921C104.077 59.652 105.507 56.616 106.663 53.577C107.061 52.537 107.438 51.487 107.781 50.423C107.892 50.488 108.022 50.529 108.184 50.526C109.317 50.499 110.407 50.25 111.495 49.937C112.489 49.644 113.441 49.403 114.275 48.76C115.867 47.519 116.481 45.631 117.188 43.823C117.599 42.765 117.704 41.617 118.177 40.589C118.64 39.587 119.13 38.553 119.715 37.622C120.282 36.719 120.994 35.907 121.433 34.93C121.67 34.404 121.827 33.858 121.972 33.303C122.106 32.779 122.331 32.284 122.467 31.763C122.717 30.798 122.641 29.726 122.475 28.752C122.326 27.877 122.068 26.915 121.528 26.195C120.977 25.464 120.096 25.129 119.436 24.524C118.758 23.905 117.976 23.275 116.998 23.376C116.879 23.394 116.663 23.419 116.502 23.478C116.532 23.427 116.557 23.384 116.575 23.364C116.709 23.202 116.849 23.047 116.993 22.893C117.648 22.179 118.166 21.349 118.728 20.556C119.05 20.113 119.254 19.63 119.466 19.126C119.677 18.613 119.935 18.122 120.144 17.611C120.549 16.594 120.714 15.511 120.443 14.44C120.201 13.47 119.846 12.526 119.08 11.861C118.381 11.251 117.561 10.757 116.668 10.507C115.743 10.257 114.863 9.85597 113.911 9.73197C113.289 9.65197 112.659 9.65197 112.044 9.53797C111.528 9.44397 110.926 9.29197 110.741 8.74297C110.592 8.30897 110.681 7.76396 110.728 7.32396C110.787 6.78596 110.875 6.26097 111.007 5.73597C111.249 4.78397 110.809 3.60596 110.415 2.73796C110.089 2.01596 109.539 1.42196 108.823 1.07996C108.073 0.72396 107.159 0.482962 106.334 0.422962C105.829 0.384962 105.335 0.291961 104.827 0.243961C104.268 0.189961 103.718 0.282972 103.167 0.376972C102.138 0.549972 101.151 0.693967 100.171 1.05297C99.1322 1.43497 98.0652 1.70996 97.0532 2.15396C96.0462 2.59396 95.0972 3.22597 94.2262 3.89397C93.4902 4.45297 92.8332 5.23996 91.9782 5.61696C91.7492 5.71996 91.1862 5.94797 90.9372 5.81597C90.7172 5.69797 90.6702 5.26196 90.6242 5.04996C90.4372 4.23796 90.1442 3.58496 89.5902 2.94696C88.2532 1.38896 86.4322 0.215968 84.3202 0.647968C83.2652 0.862968 82.2502 1.21497 81.3572 1.82897C80.4892 2.42597 79.6452 3.06396 78.8552 3.75496C78.0512 4.45296 77.2922 5.20696 76.6112 6.02396C75.9492 6.81596 75.4002 7.67897 74.7092 8.44497C74.4262 8.75897 74.1422 9.07696 73.9142 9.43196C73.6212 9.88896 73.4662 10.418 73.2792 10.922C72.8772 11.984 72.5052 13.026 72.4022 14.165C72.2962 15.294 72.4292 16.426 72.4702 17.555C72.4832 17.864 72.7412 17.997 72.9742 17.962C72.7412 18.236 72.4872 18.499 72.2752 18.797C72.0472 19.121 71.9282 19.503 71.7342 19.85C71.5232 20.231 71.2652 20.57 71.0812 20.971C70.7492 21.709 70.5372 22.488 70.3502 23.27C70.1332 24.151 69.9092 25.031 69.7752 25.929C69.6342 26.844 69.5882 27.766 69.4902 28.689C69.3842 29.709 69.1892 30.721 69.0422 31.737C68.9832 32.152 68.9832 32.559 68.9782 32.979C68.9742 33.422 68.8592 33.837 68.7822 34.274C68.6142 35.226 68.6222 36.225 68.5512 37.191C68.4752 38.193 68.3392 39.192 68.2422 40.195C68.1522 41.097 68.2802 42.011 68.2242 42.917C68.1692 43.84 68.0042 44.746 67.9872 45.674C67.9542 47.557 68.0522 49.484 67.6232 51.334C67.4282 52.181 67.5392 53.056 67.4282 53.921C67.3742 54.357 67.3112 54.792 67.2842 55.229C67.2592 55.72 67.3272 56.206 67.3062 56.692C67.2842 57.058 67.0992 57.357 67.0352 57.713C66.9632 58.108 67.0182 58.513 67.1022 58.898C67.2562 59.627 67.4632 60.444 67.7752 61.117C68.3562 62.349 69.6042 63.047 70.7982 63.581C72.2802 64.246 73.7962 64.961 75.4002 65.275C75.7262 65.338 76.0552 65.371 76.3912 65.4C76.3482 65.524 76.3072 65.647 76.2672 65.774C76.1582 66.105 76.1202 66.434 76.0772 66.776C76.0302 67.145 75.8952 67.471 75.7772 67.818C75.6422 68.195 75.5772 68.585 75.4632 68.969C75.0612 70.338 74.4812 71.641 74.1502 73.034C74.1502 73.034 74.1472 73.034 74.1422 73.039C74.0162 73.145 73.9392 73.267 73.9022 73.394C73.7452 73.351 73.5882 73.318 73.4312 73.302C72.8652 73.242 72.2672 73.403 71.7082 73.465C70.7302 73.576 69.7532 73.335 68.7792 73.454C68.2452 73.52 67.7852 73.75 67.2432 73.75C66.6662 73.75 66.0922 73.72 65.5202 73.707C65.0152 73.699 64.5332 73.737 64.0412 73.847C63.4362 73.991 62.8362 74.003 62.2122 74.042C59.8632 74.181 57.5902 74.578 55.3252 75.21C53.1502 75.82 50.9772 76.353 48.9882 77.449C48.0602 77.962 47.0912 78.368 46.1552 78.863C45.2672 79.334 44.3962 79.87 43.5232 80.379C42.5702 80.933 41.8212 81.682 41.0462 82.461C40.1992 83.313 39.3572 84.168 38.5102 85.018C36.9102 86.627 35.4662 88.388 34.1202 90.214C33.8192 90.627 33.5072 91.039 33.2272 91.465C32.9312 91.919 32.7692 92.439 32.5082 92.909C32.0002 93.82 31.1732 94.535 30.5942 95.403C29.9412 96.374 29.4342 97.422 28.8202 98.412C28.4992 98.933 28.1732 99.449 27.9062 99.997C27.6692 100.48 27.5962 101.058 27.2872 101.49C26.9612 101.956 26.7172 102.366 26.5432 102.914C26.3562 103.493 26.1232 104.043 25.8622 104.594C25.5942 105.153 25.3662 105.728 25.0562 106.262C24.7552 106.782 24.4432 107.281 24.2392 107.853C24.0962 108.26 24.3322 108.551 24.6502 108.654C24.5542 108.784 24.4512 108.917 24.3802 109.06C24.3672 109.08 24.3582 109.107 24.3502 109.128C24.2442 109.034 24.1342 108.95 24.0112 108.879C23.3932 108.526 22.6522 108.425 21.9542 108.407C21.1372 108.382 20.3152 108.434 19.4982 108.396C18.7112 108.358 17.9522 108.158 17.1672 108.171C16.8012 108.176 16.4372 108.214 16.0742 108.196C15.6542 108.176 15.2432 108.065 14.8252 108.01C14.0282 107.905 13.2192 107.994 12.4212 107.976C11.6322 107.956 10.8882 107.726 10.0872 107.731C9.18919 107.739 8.29319 107.734 7.39519 107.731C6.53519 107.731 5.68019 107.734 4.82019 107.734C4.08519 107.734 3.4162 107.777 2.7172 108.032C1.5032 108.472 0.193185 109.11 0.321185 110.63C0.347185 110.982 0.448197 111.316 0.508197 111.663C0.575197 112.065 0.58419 112.472 0.67319 112.87C0.84719 113.628 1.14319 114.309 1.43019 115.02C1.55819 115.338 1.55819 115.685 1.66419 116.007C1.78619 116.396 1.95619 116.773 2.11719 117.145C2.41619 117.865 2.75519 118.559 3.14919 119.234C3.86519 120.448 4.16619 121.823 4.85819 123.047C4.99919 123.297 5.15619 123.53 5.33019 123.753C5.21619 123.745 5.10219 123.737 4.98619 123.737C4.14919 123.737 3.32219 123.897 2.50519 124.071C2.21319 124.13 2.2442 124.592 2.4972 124.648C2.0492 125.121 1.71519 125.769 1.52019 126.374C1.27319 127.132 1.29519 127.949 1.15419 128.727C0.991193 129.652 1.00719 130.507 1.22719 131.416C1.45519 132.352 1.7862 133.24 1.9632 134.189C2.1422 135.134 2.25619 136.095 2.45919 137.039C2.84419 138.808 3.0482 140.629 3.5472 142.364C3.7922 143.215 3.75919 144.121 4.00019 144.976C4.28019 145.937 4.5842 146.876 4.8012 147.859C5.0042 148.762 5.15119 149.671 5.45519 150.548C5.76119 151.416 6.04419 152.287 6.33719 153.159C6.63819 154.065 6.9972 154.955 7.3362 155.848C7.6662 156.716 7.9112 157.609 8.2342 158.48C8.5432 159.319 8.9532 160.114 9.3082 160.933C9.6692 161.769 9.95719 162.634 10.3802 163.443C10.7602 164.162 11.0702 164.924 11.4962 165.617C11.6962 165.945 11.7772 166.295 11.9162 166.651C12.0822 167.061 12.2932 167.443 12.5402 167.815C13.0262 168.556 13.5292 169.28 13.9922 170.038C14.4272 170.749 14.8752 171.503 15.3762 172.171C15.6092 172.485 15.8972 172.735 16.1662 173.014C16.4842 173.335 16.7432 173.704 17.0722 174.016C17.6912 174.613 18.3472 175.152 18.9262 175.791C19.5312 176.46 20.1662 177.031 21.0262 177.353C21.7622 177.625 22.5732 177.755 23.3382 177.912C24.1932 178.089 25.0832 178.233 25.9542 178.144C26.8642 178.056 27.6612 177.682 28.4782 177.302C29.2902 176.922 30.0982 176.493 30.8902 176.07C31.2382 175.883 31.5042 175.622 31.8132 175.376C32.1262 175.131 32.5082 174.979 32.8552 174.784C33.6042 174.352 33.9632 173.666 34.5272 173.047C35.1192 172.404 35.8382 171.79 36.2662 171.015C36.4582 170.678 36.5642 170.301 36.7202 169.945C36.8882 169.563 37.1562 169.25 37.3602 168.887C37.7832 168.154 38.0362 167.34 38.3832 166.57C38.7352 165.801 39.2762 165.166 39.5852 164.369C39.9212 163.511 40.3232 162.692 40.6702 161.837C40.9992 161.02 41.1992 160.152 41.5532 159.348C41.9142 158.536 42.3372 157.769 42.6302 156.927C42.7062 156.699 42.8122 156.483 42.9182 156.271C42.7392 157.185 42.5022 158.087 42.3552 159.006C42.1632 160.216 42.2102 161.448 42.0032 162.654C41.7652 164.01 41.5532 165.33 41.4472 166.705C41.4032 167.324 41.2872 167.929 41.1942 168.543C41.0972 169.161 41.0752 169.775 41.0042 170.393C40.9362 170.982 40.7792 171.557 40.6952 172.141C40.6012 172.776 40.5382 173.421 40.3642 174.038C40.2072 174.602 40.0302 175.123 39.9462 175.701C39.9082 175.964 39.8952 176.422 39.7042 176.596C39.3872 176.884 39.4032 177.243 39.5772 177.519C39.6282 177.806 39.8572 178.068 40.2632 178.124C41.8432 178.327 43.4332 178.298 45.0212 178.298C46.5752 178.293 48.1252 178.293 49.6742 178.293L59.0852 178.289C65.2872 178.289 71.4892 178.284 77.6862 178.279C90.1582 178.276 102.63 178.271 115.1 178.268C118.551 178.263 122.006 178.263 125.455 178.263C128.791 178.26 132.174 178.39 135.506 178.154C135.734 178.26 136.005 178.255 136.247 178.068C136.497 177.975 136.644 177.785 136.695 177.568C136.91 177.302 137.118 177.031 137.305 176.751C137.614 176.29 137.724 175.791 137.944 175.296C138.418 174.216 139.099 173.209 139.617 172.146C139.84 171.688 140.06 171.218 140.353 170.8C140.662 170.352 141.072 169.975 141.343 169.5C141.597 169.06 141.567 168.51 141.826 168.099C142.139 167.603 142.394 167.142 142.6 166.588C143.037 165.416 143.452 164.238 143.837 163.044C144.231 161.829 144.515 160.589 144.896 159.37C145.64 156.977 146.339 154.488 146.668 152.003C146.744 151.449 146.92 150.936 147.029 150.39C147.14 149.81 147.088 149.231 147.14 148.646C147.189 148.046 147.351 147.449 147.431 146.847C147.512 146.222 147.563 145.59 147.599 144.955C147.639 144.374 147.642 143.787 147.71 143.207C147.791 142.559 147.913 141.924 147.917 141.267C147.93 139.967 147.914 138.668 147.914 137.369C147.914 134.743 148.003 132.106 147.803 129.486Z" fill="#4B4438"/>
<path d="M36.6543 142.715C36.6033 143.342 36.2363 144.044 35.9353 144.593C35.6693 145.081 35.3253 145.467 34.8223 145.703C34.1743 146.009 33.3873 146.186 32.6873 146.33C31.8403 146.508 30.9853 146.406 30.1303 146.381C29.2843 146.355 28.4243 146.346 27.5773 146.368C27.2133 146.381 26.8503 146.432 26.4943 146.338C26.1173 146.24 25.7863 146.11 25.3843 146.126C25.1653 146.135 24.9963 146.221 24.8743 146.343C24.8263 146.346 24.7793 146.351 24.7333 146.355C24.6223 146.376 24.5133 146.398 24.3993 146.419C24.3443 146.427 24.2903 146.441 24.2343 146.449H24.1743C24.0653 146.452 23.9623 146.452 23.8533 146.449C23.8453 146.444 23.8373 146.444 23.8233 146.441C23.7943 146.432 23.7563 146.419 23.7213 146.411C23.6753 146.381 23.6283 146.36 23.5853 146.33C23.5823 146.326 23.5823 146.326 23.5773 146.326C24.0483 146.259 24.5013 146.135 24.9283 145.936C25.4993 145.662 26.3373 145.144 26.0593 144.395C25.8083 143.727 24.8393 143.269 24.2293 143.003C23.4713 142.669 22.6683 142.49 21.8803 142.245C20.9913 141.974 20.1273 141.618 19.2103 141.458C18.7523 141.372 18.2903 141.296 17.8343 141.217C17.9003 141.212 17.9733 141.207 18.0413 141.207C18.6713 141.19 19.2353 141.418 19.8403 141.564C21.0883 141.868 22.3753 141.584 23.6333 141.825C24.7713 142.042 25.7913 141.746 26.8713 141.377C27.5413 141.152 28.5483 140.636 28.4973 139.798C28.4503 139.014 27.4933 138.541 26.8743 138.265C26.4613 138.083 26.0333 137.969 25.5803 137.901C24.9503 137.808 24.3053 137.863 23.6883 137.703C23.1453 137.559 22.6333 137.377 22.0713 137.321C21.3333 137.253 20.5923 137.233 19.8563 137.147C19.1753 137.071 18.4973 136.965 17.8243 136.851C18.3883 136.856 18.9553 136.813 19.4973 136.962C20.8423 137.334 22.3123 137.177 23.6913 137.135C24.3863 137.114 25.0753 137.135 25.7713 137.13C26.4013 137.13 26.8413 136.886 27.4223 136.686C27.8883 136.525 28.3113 136.55 28.7003 136.199C29.1323 135.806 29.3483 135.272 29.2543 134.691C29.1783 134.218 28.9283 133.782 28.5303 133.502C28.2933 133.334 28.0873 133.269 27.8023 133.239C27.4683 133.206 27.3163 133.024 27.0123 132.881C25.7373 132.275 24.3533 132.267 22.9853 132.064C21.4573 131.834 19.9033 131.61 18.4043 131.209C17.6803 131.014 16.9693 130.815 16.2173 130.797C15.4333 130.785 14.6593 130.903 13.8753 130.835C13.4553 130.797 13.0373 130.718 12.6183 130.62C13.0103 130.632 13.4093 130.65 13.8073 130.645C14.5183 130.641 15.2213 130.522 15.9293 130.441C16.7763 130.349 17.6223 130.365 18.4723 130.387C19.2103 130.403 19.9213 130.387 20.6523 130.281C21.4443 130.167 22.1803 130.17 22.9773 130.183C23.9463 130.197 25.1653 129.929 25.7023 129.024C26.9903 126.864 22.4133 125.785 21.2163 125.456C20.5893 125.285 19.9753 125.09 19.3223 125.049C18.6033 125.006 17.9223 124.794 17.2053 124.731C16.4613 124.663 15.7323 124.647 14.9963 124.493C14.2393 124.333 13.4853 124.167 12.7063 124.118C10.9503 123.999 9.19227 123.944 7.43227 123.939C7.26227 123.939 7.09728 123.926 6.92828 123.909C6.90328 123.855 6.86028 123.795 6.80128 123.741C5.88928 122.897 5.40827 121.662 5.03527 120.506C4.61127 119.185 3.80327 118.055 3.25727 116.789C3.11827 116.455 2.97728 116.121 2.85528 115.777C2.75728 115.497 2.74127 115.223 2.67327 114.94C2.58927 114.613 2.41528 114.338 2.28828 114.034C2.14128 113.681 2.03827 113.301 1.93227 112.932C1.74727 112.268 1.71727 111.581 1.57227 110.905C1.41627 110.177 1.62827 109.733 2.29127 109.407C2.85527 109.131 3.49527 108.861 4.12527 108.826C4.93427 108.78 5.75927 108.821 6.56727 108.821C7.33027 108.821 8.08727 108.826 8.85027 108.826C9.65827 108.826 10.4833 108.759 11.2793 108.916C11.9623 109.046 12.6053 109.073 13.3033 109.063C14.0873 109.051 14.7933 109.136 15.5633 109.25C16.2203 109.347 16.8713 109.271 17.5313 109.296C18.2903 109.326 19.0313 109.521 19.7933 109.546C20.5813 109.575 21.3713 109.524 22.1553 109.575C22.4773 109.597 22.8113 109.643 23.1123 109.757C23.1623 110.075 23.2893 110.311 23.4683 110.583C23.6613 110.883 23.7853 111.206 23.9033 111.54C24.0433 111.937 24.1663 112.344 24.3233 112.734C24.5053 113.179 24.6833 113.681 25.0043 114.054C25.2293 114.316 25.6093 114.593 25.9623 114.439C25.9903 114.427 26.0033 114.406 26.0193 114.384C26.4733 115.451 26.9143 116.522 27.3193 117.602C27.8243 118.943 28.5053 120.202 28.9583 121.561C29.4573 123.068 29.8863 124.591 30.4943 126.061C31.0963 127.508 31.5873 128.989 32.0873 130.476C32.3233 131.166 32.5323 131.882 32.8233 132.555C32.9583 132.876 33.1373 133.177 33.2973 133.489C33.4633 133.807 33.5523 134.137 33.6793 134.468C33.8943 135.044 34.2713 135.548 34.4753 136.127C34.7113 136.818 34.9283 137.494 35.2193 138.164C35.5363 138.892 35.8373 139.611 36.0373 140.378C36.2283 141.114 36.7223 141.944 36.6543 142.715Z" fill="#4B4438"/>
<path d="M121.182 30.9856C121.122 31.4466 120.922 31.8616 120.77 32.2986C120.588 32.8306 120.482 33.3896 120.295 33.9246C119.966 34.8596 119.318 35.6386 118.759 36.4476C118.164 37.3186 117.697 38.2886 117.223 39.2376C116.981 39.7236 116.732 40.2196 116.555 40.7356C116.379 41.2346 116.303 41.7556 116.178 42.2636C115.915 43.2836 115.467 44.2876 115.063 45.2566C114.751 46.0226 114.297 46.7546 113.684 47.3186C112.984 47.9656 112.156 48.1476 111.263 48.3886C110.263 48.6566 109.28 48.8926 108.243 48.9016L108.333 48.5966C108.582 47.6906 108.756 46.7686 109.031 45.8706C109.252 45.1546 109.522 44.4566 109.755 43.7406C109.828 43.7506 109.899 43.7536 109.967 43.7506C110.522 43.7286 110.979 43.3816 111.405 43.0636C112.159 42.5016 112.96 41.8266 113.494 41.0446C113.934 40.3966 114.268 39.6346 114.484 38.8896C114.721 38.0686 115.009 37.3356 115.03 36.4726C115.055 35.6586 114.989 34.8986 114.463 34.2466C114.018 33.6906 113.38 33.2976 112.647 33.3486C111.304 33.4416 110.186 34.5636 109.7 35.8126C108.265 34.9986 106.762 34.2966 105.369 33.4116C103.994 32.5436 102.96 31.3166 102.216 29.8756C101.852 29.1736 101.581 28.4286 101.209 27.7266C100.818 26.9906 100.379 26.2696 100.091 25.4826C99.9599 25.1096 99.8788 24.7216 99.7488 24.3476C99.6028 23.9496 99.4209 23.5636 99.2819 23.1666C99.1379 22.7566 98.9979 22.3796 98.8079 21.9896C98.6089 21.5926 98.5529 21.1726 98.4059 20.7576C98.1479 20.0546 97.6218 19.5526 97.1028 19.0346C96.5338 18.4806 96.1369 17.8156 95.6919 17.1676C95.2389 16.5126 94.7429 15.9186 94.0879 15.4576C93.4349 14.9966 92.6988 14.6276 92.0128 14.2226C89.2658 12.6046 85.6458 12.0036 82.5388 12.7626C80.6848 13.2136 78.8588 13.9756 77.1928 14.9036C76.6578 15.1966 76.1429 15.5136 75.6429 15.8566C75.5699 15.8376 75.4909 15.8316 75.4069 15.8476C74.6859 15.9656 74.1049 16.4726 73.6649 17.0286C73.5509 17.1726 73.4448 17.3246 73.3398 17.4816C73.3638 16.4066 73.3229 15.3266 73.4239 14.2606C73.5299 13.1586 73.9449 12.1386 74.3429 11.1186C74.5169 10.6736 74.6528 10.2286 74.9268 9.8406C75.2198 9.4336 75.5838 9.0906 75.9038 8.7136C76.5438 7.9596 77.0599 7.1186 77.7169 6.3776C79.0329 4.8956 80.6258 3.4556 82.3488 2.4616C83.1868 1.9736 84.3549 1.57661 85.3339 1.58961C86.3919 1.59861 87.2798 2.23361 88.0338 2.90661C88.6938 3.49461 89.3069 4.1256 89.5109 5.0046C89.6459 5.5816 89.7388 6.2256 90.2228 6.6236C90.8238 7.1216 91.7459 6.8896 92.3949 6.6106C93.1929 6.2716 93.7998 5.6446 94.4568 5.0996C95.2638 4.4256 96.1749 3.8206 97.1139 3.3426C98.0619 2.8546 99.1138 2.60161 100.121 2.25361C101.09 1.92361 102.007 1.6826 103.024 1.5386C103.511 1.4656 103.994 1.3516 104.49 1.3566C105.019 1.3606 105.538 1.5086 106.064 1.5506C106.846 1.6096 107.77 1.7886 108.46 2.1856C109.209 2.6186 109.492 3.42261 109.712 4.21461C109.839 4.67561 109.967 5.0946 109.844 5.5606C109.709 6.0736 109.646 6.6106 109.581 7.1316C109.48 7.9306 109.386 8.8496 109.831 9.5656C110.522 10.6736 112.012 10.7386 113.171 10.8306C113.93 10.8906 114.593 11.0586 115.313 11.3086C116.254 11.6346 117.125 11.8266 117.939 12.4396C118.751 13.0536 119.068 13.8786 119.272 14.8576C119.488 15.8946 119.068 16.9356 118.615 17.8586C118.382 18.3286 118.213 18.8316 117.972 19.2976C117.74 19.7426 117.413 20.1196 117.112 20.5216C116.829 20.9016 116.613 21.3246 116.295 21.6806C116.062 21.9436 115.809 22.1926 115.584 22.4646C115.098 23.0476 114.607 23.8786 115.271 24.5426C115.563 24.8336 116.007 24.9906 116.414 24.9366C116.838 24.8766 117.105 24.5846 117.544 24.7546C117.912 24.8986 118.208 25.2026 118.493 25.4656C118.835 25.7866 119.191 26.0706 119.589 26.3206C119.928 26.5326 120.262 26.7326 120.487 27.0696C120.729 27.4386 120.854 27.8786 120.965 28.3016C121.193 29.1666 121.291 30.0926 121.182 30.9856Z" fill="#4B4438"/>
<path d="M83.2971 31.7749C83.2081 31.6549 83.0511 31.5519 82.8941 31.6099C81.7641 32.0249 81.5001 33.1989 80.8231 34.0689C80.0541 35.0599 79.5671 36.1629 78.9731 37.2569C78.7661 37.6379 78.5301 38.0099 78.2601 38.3499C78.0071 38.6659 77.6751 39.0809 77.2781 39.2189C77.0881 39.2859 76.8481 39.2759 76.6811 39.1489C76.4971 39.0089 76.5301 38.7539 76.4461 38.5539C76.2391 38.0639 75.9121 37.6329 75.7221 37.1369C75.4821 36.5129 75.3811 35.7819 75.2881 35.1239C75.1741 34.3239 75.2171 33.4819 75.1941 32.6749C75.1831 32.2019 74.4731 32.2019 74.4621 32.6749C74.4221 34.1929 74.3281 35.7429 74.7781 37.2179C74.9561 37.8059 75.3121 38.2989 75.5431 38.8629C75.6361 39.0899 75.6241 39.3259 75.7551 39.5459C75.9231 39.8289 76.2151 40.0439 76.5241 40.1509C77.6601 40.5429 78.6591 39.5859 79.3091 38.7719C80.1111 37.7649 80.6151 36.5779 81.3431 35.5209C81.8021 34.8509 82.3781 34.3219 82.6871 33.5559C82.7501 33.4029 82.8031 33.2489 82.9001 33.1129C83.0041 32.9709 83.1501 32.8619 83.2431 32.7099C83.4101 32.4339 83.4991 32.0519 83.2971 31.7749Z" fill="#4B4438"/>
<path d="M97.0593 31.2998C96.8823 30.5878 95.7552 30.7329 95.7722 31.4739C95.7802 31.8299 95.4362 32.2878 95.2252 32.6098C94.9342 33.0528 94.6512 33.4969 94.3712 33.9459C93.6452 35.1069 92.9062 36.3308 92.0382 37.3928C91.6542 37.8618 91.2162 38.3288 90.6692 38.6058C90.3832 38.7518 90.1052 38.8308 89.8902 38.6658C89.3382 38.2388 89.1812 37.2798 89.0052 36.6518C88.8512 36.1088 88.6562 35.5768 88.5792 35.0158C88.4612 34.1628 88.5092 33.2929 88.4992 32.4349C88.4912 31.8279 87.5682 31.8279 87.5572 32.4349C87.5382 33.3159 87.4662 34.2039 87.5552 35.0859C87.6182 35.6959 87.7902 36.2708 87.9352 36.8648C88.1542 37.7548 88.3822 38.8209 89.0902 39.4649C90.0742 40.3609 91.3523 39.6608 92.2223 38.9588C93.4453 37.9708 94.3132 36.5518 95.1822 35.2658C95.6232 34.6108 96.0502 33.9458 96.4912 33.2898C96.8822 32.7088 97.2363 32.0148 97.0593 31.2998Z" fill="#4B4438"/>
<path d="M86.1265 45.897C85.5935 46.35 84.8875 46.767 84.2655 47.092C83.9205 47.273 83.5465 47.431 83.1725 47.545C82.7875 47.663 82.4035 47.635 82.0065 47.656C81.2655 47.696 80.6345 47.835 80.0255 47.319C79.5465 46.912 79.0465 46.214 79.3795 45.579C80.0435 44.306 81.7195 43.944 82.4895 42.771C82.9555 42.06 83.1925 41.207 83.4455 40.405C83.7165 39.542 84.0115 38.688 84.3035 37.833C84.6245 36.901 84.8645 35.928 84.9105 34.94C84.9605 33.868 85.0925 32.788 85.0775 31.715C85.0715 31.184 84.2755 31.187 84.2545 31.715C84.2115 32.765 84.0045 33.799 83.9385 34.847C83.8735 35.872 83.5575 36.861 83.1945 37.815C82.8225 38.786 82.4845 39.77 82.1295 40.749C81.9785 41.164 81.8035 41.571 81.5815 41.954C81.3415 42.371 80.9795 42.584 80.5965 42.849C79.3935 43.681 77.6985 44.779 78.0775 46.477C78.2525 47.266 78.8255 47.949 79.4685 48.41C80.1865 48.923 80.9285 48.959 81.7805 48.916C82.2545 48.892 82.7295 48.931 83.1995 48.852C83.6625 48.774 84.1135 48.586 84.5455 48.404C85.4265 48.035 86.3525 47.478 87.0455 46.816C87.6575 46.229 86.7565 45.361 86.1265 45.897Z" fill="#4B4438"/>
<path d="M90.4949 49.3237C90.3959 49.0597 90.0979 48.8027 89.7919 48.9257C89.1139 49.1947 88.9269 50.0197 88.5679 50.6087C88.1809 51.2417 87.5879 51.6767 86.9909 52.1007C85.7469 52.9847 84.5809 53.8797 83.0119 54.0637C81.6149 54.2257 80.0979 53.8817 78.9039 53.1387C77.6149 52.3367 76.7759 51.0517 75.8289 49.9107C75.5669 49.5967 75.0449 49.9337 75.1559 50.3017C75.6269 51.8427 76.9069 53.2397 78.2279 54.1407C79.5789 55.0637 81.3869 55.5267 83.0119 55.3957C84.8199 55.2527 86.1989 54.4107 87.6559 53.4117C88.3729 52.9207 89.0879 52.4097 89.6119 51.7047C89.8679 51.3597 90.0629 50.9927 90.2319 50.5987C90.4039 50.1957 90.6589 49.7657 90.4949 49.3237Z" fill="#4B4438"/>
<path d="M82.5943 26.7026C82.1293 26.2016 81.2993 26.1696 80.6673 26.1976C79.9593 26.2296 79.3053 26.3006 78.6183 26.4806C77.9903 26.6446 77.3783 26.7076 76.7733 26.9586C76.2223 27.1866 75.6673 27.3706 75.2353 27.8036C74.8943 28.1446 75.3593 28.8056 75.7713 28.4966C76.1773 28.1886 76.6773 28.1126 77.1613 27.9936C77.7403 27.8536 78.3193 27.8446 78.9043 27.7586C79.4823 27.6726 80.0173 27.6216 80.6033 27.6216C80.8613 27.6216 81.1323 27.6016 81.3853 27.6516C81.7093 27.7176 81.9883 27.8616 82.3223 27.7306C82.7543 27.5626 82.9313 27.0666 82.5943 26.7026Z" fill="#4B4438"/>
<path d="M94.5853 26.3558C94.5753 26.3298 94.5643 26.3058 94.5523 26.2798C94.5093 26.0668 94.3013 25.8648 94.0913 25.8188C93.7813 25.7488 93.4794 25.7758 93.1704 25.7488C93.1814 25.7458 92.9663 25.7108 92.9433 25.7078C92.8593 25.6928 92.7744 25.6798 92.6924 25.6658C92.4854 25.6328 92.2783 25.5968 92.0733 25.5508C91.2833 25.3738 90.5093 25.3898 89.7073 25.4298C89.0303 25.4648 89.0293 26.4488 89.7073 26.4818C90.0843 26.4998 90.4723 26.5108 90.8453 26.5588C91.2483 26.6118 91.6274 26.7348 92.0194 26.8338C92.4204 26.9328 92.8393 27.0408 93.2513 27.0638C93.3943 27.0698 93.5383 27.0698 93.6813 27.0768C93.7603 27.0838 93.7624 27.0838 93.6844 27.0768C93.7584 27.0978 93.8364 27.1098 93.9154 27.1148C94.0314 27.1148 94.1403 27.0848 94.2413 27.0268C94.2713 27.0218 94.3014 27.0208 94.3294 27.0158C94.5164 26.9758 94.6073 26.7988 94.6253 26.6268C94.6353 26.5328 94.6183 26.4448 94.5853 26.3558Z" fill="#4B4438"/>
<path d="M142.986 114.372C142.254 114.311 141.549 114.805 140.967 115.192C140.691 115.376 140.418 115.578 140.12 115.73C139.758 115.917 139.351 115.998 138.983 116.171C138.683 116.315 138.419 116.527 138.115 116.652C137.784 116.793 137.41 116.747 137.059 116.798C136.684 116.853 136.358 117.016 136.003 117.139C135.632 117.266 135.25 117.359 134.873 117.461C134.085 117.671 133.312 117.914 132.528 118.137C131.698 118.374 130.832 118.514 129.988 118.7C129.167 118.88 128.365 119.05 127.526 119.125C126.757 119.192 126.016 119.368 125.251 119.444C124.831 119.485 124.427 119.611 124.01 119.662C123.552 119.72 123.093 119.601 122.633 119.657C122.198 119.712 121.834 119.912 121.427 120.054C120.974 120.213 120.424 120.244 119.946 120.271C119.319 120.305 119.321 121.202 119.946 121.243C120.362 121.271 120.743 121.374 121.166 121.332C121.576 121.293 121.922 121.137 122.304 120.993C122.679 120.853 123.007 120.851 123.404 120.879C123.858 120.911 124.268 120.863 124.713 120.775C125.084 120.704 125.441 120.691 125.815 120.659C126.205 120.626 126.577 120.51 126.961 120.446C127.786 120.309 128.621 120.305 129.446 120.135C130.266 119.966 131.086 119.794 131.908 119.622C132.733 119.45 133.511 119.159 134.328 118.968C135.11 118.786 135.917 118.609 136.668 118.316C137.365 118.045 138.11 118.152 138.793 117.825C139.184 117.638 139.523 117.393 139.937 117.251C140.34 117.112 140.724 116.97 141.089 116.745C141.43 116.537 141.754 116.302 142.095 116.095C142.482 115.864 142.899 115.735 143.3 115.536C143.904 115.239 143.548 114.418 142.986 114.372Z" fill="#4B4438"/>
<path d="M43.9273 105.168C43.6443 105.052 43.4143 104.734 43.2323 104.501C42.9833 104.182 42.7583 103.846 42.5313 103.509C42.0933 102.854 41.6753 102.217 41.1593 101.619C39.7183 99.9438 38.0373 98.5018 36.4723 96.9488C36.1003 96.5798 35.5263 97.1518 35.8973 97.5238C37.5403 99.1678 39.3183 100.688 40.8003 102.485C41.3133 103.107 41.6903 103.821 42.1813 104.46C42.5973 105 43.1273 105.611 43.8643 105.634C44.1533 105.644 44.1603 105.26 43.9273 105.168Z" fill="#4B4438"/>
<path d="M47.5592 105.062C46.8232 104.171 46.8152 103.013 46.4082 101.98C45.9172 100.73 45.1501 99.6078 44.5381 98.4178C43.8961 97.1708 43.3282 95.8838 42.6692 94.6458C42.1152 93.6008 41.6711 92.4908 40.8141 91.6458C40.4121 91.2508 39.8142 91.8538 40.1972 92.2628C41.0472 93.1738 41.4292 94.4188 41.9552 95.5248C42.5722 96.8238 43.1442 98.1428 43.7962 99.4228C44.3832 100.577 45.1682 101.682 45.5072 102.944C45.8032 104.044 45.9721 105.128 46.9871 105.803C47.4631 106.119 47.8772 105.449 47.5592 105.062Z" fill="#4B4438"/>
<path d="M116.133 91.2607C115.87 91.5617 115.697 91.9307 115.439 92.2267C115.151 92.5607 114.842 92.8847 114.529 93.1957C113.916 93.8047 113.243 94.3487 112.629 94.9567C112.168 95.4187 112.882 96.1347 113.345 95.6727C113.979 95.0427 114.678 94.4827 115.308 93.8487C115.646 93.5087 115.948 93.1547 116.196 92.7427C116.42 92.3737 116.681 91.9197 116.651 91.4757C116.634 91.2347 116.319 91.0507 116.133 91.2607Z" fill="#4B4438"/>
<path d="M120.535 95.322C120.426 95.365 120.31 95.403 120.209 95.461C120.097 95.526 120.009 95.623 119.92 95.713C119.776 95.853 119.634 95.994 119.491 96.136C119.197 96.425 118.904 96.715 118.61 97.006C118.03 97.576 117.471 98.168 116.902 98.752C116.693 98.967 116.674 99.349 116.902 99.559C117.132 99.771 117.481 99.781 117.709 99.559C118.293 98.992 118.885 98.431 119.457 97.851C119.738 97.566 120.021 97.28 120.303 96.994L120.727 96.566C120.816 96.475 120.91 96.387 120.981 96.28C121.054 96.174 121.092 96.045 121.138 95.926C121.272 95.594 120.867 95.19 120.535 95.322Z" fill="#4B4438"/>
</svg>
