<svg width="36" height="46" viewBox="0 0 36 46" fill="none" xmlns="http://www.w3.org/2000/svg">
<path d="M22.1844 44.484C22.0454 44.0177 21.8585 43.5646 21.7335 43.0999C21.6775 42.9097 21.6435 42.7146 21.6055 42.5195C21.8725 42.6848 22.1355 42.8502 22.3885 43.0404C22.8325 43.3794 23.3105 43.7266 23.7985 44.0011C24.3315 44.3054 24.8685 44.5898 25.4155 44.8644C24.2055 44.8726 22.9935 44.8809 21.7825 44.8809C21.8205 44.8726 21.8635 44.8644 21.9015 44.8528C21.9915 44.8263 22.0165 44.737 21.9995 44.6659C22.0975 44.6907 22.2194 44.5981 22.1844 44.484Z" fill="#FC4B2C"/>
<path d="M34.1442 4.79967C34.1272 6.27307 34.1322 7.75147 34.1322 9.22817C34.1272 12.1783 34.1242 15.1301 34.1242 18.0802C34.1192 23.4861 34.1162 28.8968 34.1112 34.3076C33.7392 33.833 33.4082 33.3287 33.1152 32.7995C32.8922 32.3976 32.5832 32.0471 32.4312 31.6055C32.2692 31.1524 32.1712 30.6878 32.0072 30.238C31.8592 29.8279 31.7452 29.4095 31.6392 28.9861C31.5162 28.5115 31.5282 28.0287 31.4402 27.5508C31.3542 27.1109 31.4402 26.6743 31.3462 26.2344C31.2402 25.7251 31.2293 25.2092 31.2483 24.6883C31.2833 23.7358 31.3293 22.7535 31.4983 21.8192C31.6683 20.8997 31.6682 19.9687 31.7402 19.041C31.8882 17.1277 32.0952 15.1301 31.7582 13.2201C31.6852 12.8017 31.4902 12.4197 31.3672 12.0146C31.2322 11.5863 31.1692 11.1878 30.9742 10.7744C30.6132 9.99877 30.2632 9.26617 29.7042 8.60967C28.5562 7.25207 26.9312 6.41697 25.2342 5.96047C24.3112 5.71077 23.3542 5.56697 22.4012 5.52067C21.9232 5.49417 21.4412 5.48587 20.9662 5.52397C20.4752 5.55867 20.0052 5.70587 19.5192 5.77037C17.7072 5.99857 15.9372 6.47647 14.1552 6.82377C13.6472 6.92627 13.1562 7.11977 12.6562 7.24707C12.2082 7.36117 11.7252 7.41577 11.2972 7.58607C10.7812 7.78947 10.2392 7.89527 9.69323 7.99617C9.14223 8.09867 8.60022 8.25907 8.04622 8.32197C7.01222 8.44097 6.02225 8.58487 4.98525 8.54687C4.35525 8.52537 3.76125 8.41947 3.15325 8.25907C2.71625 8.14497 2.00525 7.92507 1.67425 7.60757C1.59825 7.53477 1.50925 7.52657 1.43325 7.55137L1.42522 7.54307C1.38322 7.52657 1.34524 7.50997 1.30724 7.48847C1.19124 7.42897 1.08225 7.35787 0.976248 7.28177C0.976248 6.66667 0.980248 6.04977 0.976248 5.43137C0.968248 4.58797 0.955226 3.74627 0.947226 2.90457C0.942226 2.43817 0.938227 1.99337 0.904227 1.54527C1.01023 1.54857 1.11222 1.51877 1.20122 1.44767C1.57322 1.40467 1.92123 1.36667 2.31423 1.40967C2.91123 1.47247 3.49025 1.51547 4.09225 1.51547C5.23125 1.51547 6.36623 1.50717 7.50323 1.50717H14.4172C14.9382 1.50717 15.4632 1.51877 15.9832 1.50717C16.5212 1.49397 17.0472 1.37157 17.5842 1.36337C18.6592 1.35007 19.7342 1.38317 20.8092 1.38317C21.9182 1.38317 23.0282 1.32857 24.1382 1.29057C25.2802 1.24927 26.4482 1.34187 27.5872 1.23597C28.1892 1.18147 28.7732 1.14667 29.3812 1.14667C29.9592 1.14667 30.5672 1.07557 31.1392 1.12517C31.4102 1.14667 31.6632 1.25747 31.9402 1.27407C32.1842 1.28227 32.4182 1.24427 32.6592 1.29887C33.1912 1.41297 33.6662 1.40137 34.2082 1.38817C34.0602 2.50597 34.1572 3.69167 34.1442 4.79967ZM33.9423 44.2974C33.9323 44.2941 33.9212 44.2891 33.9122 44.2858C33.8862 44.2346 33.8482 44.18 33.7982 44.1287C33.3242 43.6839 32.7432 43.4094 32.2362 43.0108C32.0452 42.862 31.8722 42.6884 31.6632 42.5577C31.3762 42.3758 31.1612 42.1592 30.8932 41.9442C30.4202 41.5622 29.9702 41.1769 29.4672 40.8346C28.9122 40.4576 28.3662 40.0773 27.8582 39.6291C27.4302 39.2471 26.9472 38.9428 26.5072 38.5708C25.9672 38.1077 25.3732 37.7324 24.7812 37.3388C24.2432 36.9866 23.7312 36.5979 23.2182 36.2126C22.8412 35.9282 22.4392 35.6868 22.0462 35.442C21.9272 35.366 21.8132 35.2899 21.6992 35.2122C21.5842 35.1328 21.4703 35.0567 21.3603 34.9724C19.1153 33.2824 16.8142 31.6518 14.4802 30.0908C14.3532 30.0064 14.2222 29.9205 14.0952 29.8328C13.9682 29.7468 13.8422 29.6625 13.7152 29.5748C13.4572 29.388 13.2022 29.1928 12.9662 28.9679C12.4992 28.5281 11.9532 28.2403 11.4082 27.9063C11.3272 27.855 11.2462 27.8005 11.1702 27.7459C11.1612 27.478 11.1503 27.2118 11.1103 26.9488C11.0853 26.7719 11.0852 26.585 11.0442 26.4163C11.0142 26.3105 10.9552 26.2212 10.9252 26.1236C10.8572 25.8905 10.8652 25.7251 10.7432 25.573C10.7432 25.5647 10.7382 25.5531 10.7382 25.5432C10.9202 25.6408 11.0942 25.7433 11.2972 25.8111C11.4872 25.8739 11.5982 25.9087 11.7552 26.0228C11.8312 26.0773 11.8862 26.1451 11.9622 26.1964C12.4742 26.5437 13.1612 26.7124 13.7182 26.9753C13.9782 27.0927 14.2312 27.22 14.4802 27.3523C14.6032 27.4102 14.7272 27.478 14.8442 27.5425C15.0312 27.6401 15.2102 27.7409 15.3912 27.8418C15.5222 27.9146 15.6532 27.9873 15.7802 28.0634C16.0212 28.199 16.2582 28.3329 16.4962 28.4685C16.6232 28.5413 16.7493 28.6124 16.8733 28.6852C17.0173 28.7662 17.1612 28.8423 17.3052 28.9216C17.4902 29.0242 17.6722 29.13 17.8592 29.2358C17.8642 29.2358 17.8642 29.2358 17.8642 29.2391H17.8672C18.1222 29.383 18.3752 29.5269 18.6432 29.6509C18.7102 29.6889 18.7812 29.722 18.8542 29.7518C19.4512 30.018 19.9542 30.3917 20.5102 30.7258C21.0392 31.0433 21.5682 31.288 22.0792 31.6403C22.1602 31.6948 22.2412 31.7461 22.3252 31.8007C22.4612 31.8817 22.5963 31.9611 22.7353 32.0371C23.0963 32.2372 23.4602 32.4224 23.8022 32.6473C24.3362 32.9946 24.8902 33.3121 25.3892 33.7106C25.5932 33.8711 25.7832 34.053 26.0082 34.1836C26.3092 34.3655 26.6302 34.4217 26.9092 34.6367C28.1082 35.5644 29.4112 36.4326 30.7032 37.223C31.3382 37.6083 31.9862 38.0118 32.6242 38.3872C32.8742 38.5311 33.1502 38.5608 33.3922 38.7146C33.6202 38.8618 33.7932 39.0354 34.0602 39.0999C34.0302 40.8859 34.0222 42.6768 34.1542 44.4462C34.0862 44.395 34.0183 44.3354 33.9423 44.2974ZM31.9432 44.5306C31.2022 44.5471 30.4582 44.6314 29.7202 44.5058C29.4162 44.4545 29.0852 44.4032 28.7732 44.3917C28.4852 44.3817 28.2172 44.3189 27.9302 44.2974C27.6122 44.2759 27.2952 44.3437 26.9772 44.3139C26.8302 44.3024 26.6943 44.2726 26.5543 44.2561C26.3093 44.1453 26.0592 43.9634 25.8512 43.8575C25.3482 43.5996 24.8652 43.3035 24.3792 43.0108C23.4892 42.4817 22.6682 41.8301 21.7992 41.2662C21.6012 41.1389 21.4162 41 21.2242 40.8512C21.0682 40.7371 20.9152 40.6197 20.7542 40.5089C20.6572 40.4411 20.5592 40.3733 20.4582 40.3137C20.2602 40.1914 20.0602 40.107 19.8862 39.9466C19.6962 39.773 19.5312 39.5812 19.3112 39.4373C18.8842 39.1545 18.4772 38.9048 18.0792 38.579C17.6522 38.2268 17.2492 37.8415 16.8002 37.5157C15.8862 36.851 14.9762 36.1746 14.0922 35.4619C14.0242 35.4073 13.9562 35.356 13.8882 35.3064C13.7532 35.2006 13.6172 35.0981 13.4782 35.0005C13.2452 34.8269 13.0122 34.6582 12.7922 34.4763C12.4022 34.1588 12.1062 33.7785 11.6822 33.4858C11.6532 33.4643 11.6232 33.4477 11.5982 33.4262C11.5732 33.2741 11.5522 33.1219 11.5332 32.9698C11.6112 32.8838 11.6572 32.7697 11.6532 32.6258C11.6392 32.2753 11.5932 31.9363 11.5332 31.589C11.4762 31.25 11.5332 30.911 11.4762 30.5687C11.3902 30.0445 11.2972 29.5103 11.2372 28.9812C11.2672 29.0027 11.2972 29.0242 11.3322 29.0457C11.9242 29.3913 12.3642 29.8626 12.9142 30.2644C13.1472 30.4331 13.3812 30.5985 13.6172 30.7671C13.7662 30.873 13.9132 30.9788 14.0652 31.0846C14.8112 31.6105 15.5653 32.1264 16.3173 32.6391C17.5033 33.4395 18.7052 34.2316 19.8362 35.1063C20.3182 35.4834 20.8192 35.8306 21.3182 36.1746C21.4362 36.2589 21.5602 36.3383 21.6772 36.4194C22.1762 36.7617 22.6762 37.1089 23.1642 37.4727C23.6882 37.868 24.2342 38.2318 24.7812 38.5956C25.3562 38.9759 25.8342 39.4505 26.3852 39.8606C26.6482 40.0607 26.9222 40.2162 27.1722 40.4361C27.4272 40.6577 27.6852 40.8776 27.9562 41.081C28.5692 41.5374 29.2042 41.936 29.7962 42.4221C30.2792 42.824 30.7542 43.201 31.2532 43.5731C31.5082 43.76 31.7363 43.9766 32.0023 44.1502C32.1933 44.2759 32.3832 44.395 32.5702 44.5223C32.3632 44.5256 32.1512 44.5256 31.9432 44.5306ZM21.7832 44.8811H21.2752C18.9392 44.8861 16.5972 44.8861 14.2572 44.8911H14.2472C14.2092 44.8811 14.1762 44.8729 14.1382 44.8613C14.0952 44.8778 14.0542 44.8811 13.9972 44.8613C13.7662 44.772 13.6722 44.5636 13.6012 44.3404C13.5162 44.0775 13.4102 43.803 13.3432 43.54C13.3082 43.3995 13.3132 43.2986 13.2372 43.1762C13.1562 43.0439 13.1182 42.8967 13.0882 42.7446C13.0282 42.3841 13.0202 42.0203 12.9692 41.6598C12.8682 41 12.8222 40.3303 12.7322 39.6704C12.6482 39.0106 12.7652 38.3029 12.8632 37.6513C12.9392 37.1437 13.0422 36.6442 13.1612 36.1531C13.3002 36.2589 13.4382 36.3681 13.5792 36.4822C14.2272 36.9998 14.8662 37.524 15.5302 38.0234C16.0002 38.3756 16.4612 38.7047 16.9032 39.09C17.3082 39.4422 17.7202 39.8193 18.1732 40.107C18.4012 40.2542 18.6512 40.36 18.8542 40.5386C19.0312 40.6957 19.1722 40.8727 19.3652 41.0132C19.8232 41.339 20.3062 41.64 20.7632 41.969C20.8682 42.0451 20.9792 42.1212 21.0882 42.1939C21.2592 42.308 21.4322 42.4139 21.6012 42.5197H21.6062C21.8722 42.6851 22.1352 42.8504 22.3882 43.0406C22.8332 43.3796 23.3112 43.7269 23.7992 44.0014C24.3312 44.3057 24.8693 44.5901 25.4163 44.8646C24.2053 44.8729 22.9932 44.8811 21.7832 44.8811ZM10.4642 32.4324C10.0572 32.1149 9.66322 31.7874 9.27022 31.4451C8.85022 31.0813 8.44823 30.6828 8.00323 30.3405C7.60923 30.0313 7.15623 29.7948 6.78423 29.4558C6.03523 28.7695 5.34024 28.0336 4.60024 27.3391C4.71424 27.2118 4.76024 27.0299 4.65124 26.8397C4.53724 26.6396 4.55324 26.3568 4.51024 26.1319C4.46124 25.8822 4.40925 25.6325 4.34225 25.3828C4.23625 24.9562 4.13523 24.5229 4.02923 24.0963C5.01523 24.7776 5.96724 25.5234 6.98824 26.1369C7.49524 26.4461 8.06725 26.6743 8.54525 27.0299C8.77025 27.1985 8.95224 27.4152 9.17724 27.5888C9.44324 27.7955 9.77424 27.9063 10.0352 28.118C10.1202 28.1808 10.2012 28.2403 10.2822 28.3048C10.2772 28.3759 10.2772 28.4487 10.2772 28.5198C10.2732 28.8803 10.3492 29.2226 10.3692 29.5781C10.3872 29.8791 10.3912 30.1702 10.4372 30.4678C10.4882 30.8316 10.4372 31.1657 10.4592 31.5262C10.4752 31.8552 10.5352 32.1727 10.5432 32.5035C10.5182 32.4787 10.4932 32.4522 10.4642 32.4324ZM3.63924 22.2293C3.59324 21.9961 3.53023 21.7762 3.50823 21.5397C3.50323 21.4967 3.50023 21.4537 3.49523 21.4157C3.60123 21.4835 3.70725 21.5562 3.81225 21.624C4.33325 21.9581 4.84624 22.3136 5.37524 22.6278C5.92924 22.9536 6.52123 23.1355 7.04223 23.5208C7.59323 23.9259 8.24125 24.1971 8.82525 24.5444C9.23225 24.7908 9.65024 24.9942 10.0652 25.2009C10.0272 25.4506 9.98923 25.7168 10.0862 25.9467C10.0952 25.955 10.0952 25.9583 10.1032 25.9632C10.0952 26.0261 10.0862 26.0856 10.0782 26.1451C10.0862 26.289 10.1462 26.4081 10.1842 26.5437C10.2352 26.7289 10.2602 26.924 10.2732 27.1192C10.2012 27.0728 10.1292 27.0249 10.0482 26.9836C9.52824 26.7124 9.13424 26.2377 8.61324 25.9467C7.99524 25.5994 7.37323 25.2935 6.79723 24.8784C6.08623 24.3675 5.37024 23.8714 4.63424 23.3968C4.35024 23.2149 4.05423 23.0462 3.75823 22.8775C3.72023 22.6609 3.68224 22.4442 3.63924 22.2293ZM2.26824 25.4291C2.05124 25.2472 1.85323 25.0405 1.63323 24.8619C1.45923 24.718 1.20524 24.6006 1.09124 24.4055C1.06124 24.3542 1.03125 24.3212 0.993246 24.2914C0.993246 23.5423 0.993225 22.7915 0.990225 22.0424C1.08223 22.1152 1.17524 22.1863 1.26424 22.2673C1.43024 22.4161 1.57325 22.5468 1.76925 22.6609C2.20025 22.9155 2.63225 23.1851 3.05825 23.4563C3.08525 23.6051 3.11525 23.7573 3.14825 23.9061C3.28325 24.4898 3.39422 25.0818 3.53322 25.6672C3.59622 25.9417 3.66023 26.2262 3.69323 26.509C3.69323 26.5255 3.69823 26.5387 3.69823 26.5553C3.22923 26.1749 2.73824 25.8144 2.26824 25.4291ZM2.83022 21.4454C2.85222 21.7133 2.86025 21.963 2.89825 22.2243C2.90325 22.2723 2.91124 22.3219 2.91524 22.3682C2.87724 22.3434 2.83523 22.3219 2.79723 22.2971C2.25523 21.9283 1.65023 21.6488 1.15023 21.2139C1.09923 21.166 1.04423 21.1412 0.990225 21.1279V19.8282C1.19123 19.896 1.34524 20.1159 1.49724 20.2565C1.66324 20.4053 1.81524 20.4929 2.02224 20.5789C2.28824 20.693 2.55123 20.8369 2.80923 20.989C2.77923 21.1461 2.81722 21.2635 2.83022 21.4454ZM3.52523 11.9716C3.95623 12.094 4.39324 12.1502 4.82824 12.2461C5.32424 12.3519 5.80223 12.5057 6.30623 12.5851C7.16623 12.729 8.04624 12.7174 8.91424 12.7935C9.87524 12.8778 10.8032 12.7339 11.7582 12.6992C12.6432 12.6694 13.5192 12.4842 14.4012 12.4627C14.8412 12.4545 15.2382 12.39 15.6712 12.3238C16.1192 12.256 16.5722 12.2676 17.0202 12.1833C17.4572 12.1022 17.8972 12.137 18.3372 12.0907C18.7732 12.0444 19.2052 11.9931 19.6412 11.9286C20.6192 11.7897 21.6222 11.9005 22.5962 12.0229C23.0072 12.0774 23.3972 12.0344 23.8072 12.1122C24.2732 12.1998 24.7302 12.2593 25.1832 12.4082C25.8052 12.6149 27.0912 13.0597 27.1342 13.8386C27.1802 14.7233 26.7023 15.3037 26.0972 15.8825C25.4793 16.4762 24.6402 16.8565 23.8702 17.2121C23.0502 17.5941 22.1352 17.9066 21.2592 18.1232C21.0302 18.1778 20.8012 18.2406 20.5772 18.3002C20.2682 18.3895 19.9622 18.4788 19.6552 18.5581C19.2692 18.6607 18.8762 18.75 18.4692 18.7996C18.0412 18.8508 17.6262 19.0112 17.1992 19.0327C17.1152 19.0377 17.0292 19.041 16.9442 19.041C16.5892 19.0575 16.2382 19.0575 15.8832 19.1138C15.8732 19.1138 15.8612 19.1171 15.8532 19.1171C13.8122 19.4395 11.7502 19.6049 9.68523 19.638C9.17723 19.6463 8.67624 19.757 8.16024 19.757C7.62724 19.7604 7.08823 19.757 6.55123 19.757C6.01423 19.757 5.47623 19.7703 4.93423 19.7736C4.42623 19.7785 3.92724 19.6644 3.41924 19.6463C3.29224 19.6429 3.19125 19.676 3.11825 19.7355C3.01725 19.6975 2.91525 19.6545 2.81725 19.6082C2.55625 19.4809 2.27623 19.4346 2.00823 19.3287C1.76423 19.2312 1.51925 19.084 1.24825 19.0377C1.15825 19.0195 1.06923 19.0327 0.990225 19.0625C0.985225 16.3108 0.985246 13.5591 0.980246 10.8025C1.64125 11.4474 2.71623 11.7517 3.52523 11.9716ZM30.3012 26.0426C30.3342 26.3055 30.4202 26.5437 30.4152 26.8099C30.4152 27.0679 30.3902 27.3126 30.4282 27.5723C30.4992 28.0419 30.5082 28.5248 30.6052 28.9861C30.7112 29.5021 30.8682 30.0147 31.0422 30.5059C31.2152 30.9838 31.3162 31.4799 31.4952 31.9578C31.6632 32.4274 31.9592 32.7995 32.2112 33.2278C32.7272 34.129 33.2892 34.9972 34.0222 35.7413C34.0512 35.7678 34.0762 35.7893 34.1062 35.8091C34.1032 36.5252 34.0942 37.2445 34.0812 37.9639C33.9922 37.8961 33.9122 37.8167 33.8152 37.7572C33.5822 37.6133 33.3072 37.6001 33.0742 37.4694C32.5022 37.147 31.9482 36.7749 31.3762 36.4442C30.8222 36.1233 30.3012 35.7413 29.7632 35.3858C29.1232 34.9625 28.4592 34.5656 27.8422 34.1125C27.6002 33.9389 27.4002 33.7024 27.1342 33.5668C26.8792 33.4394 26.6182 33.4014 26.3772 33.2361C25.8342 32.8722 25.3402 32.4522 24.7842 32.1016C24.2252 31.7494 23.6962 31.3823 23.1042 31.0946C22.9392 31.0135 22.7822 30.9292 22.6302 30.8349C22.4642 30.739 22.3092 30.6365 22.1472 30.5356C21.9272 30.3951 21.7072 30.2644 21.4702 30.1454C20.9332 29.8791 20.4582 29.507 19.9372 29.2011C19.6962 29.0622 19.4432 28.9679 19.1932 28.8538C19.1882 28.8505 19.1802 28.8505 19.1752 28.8456C19.0662 28.7943 18.9632 28.7364 18.8622 28.6686C18.6762 28.5545 18.4942 28.4305 18.2952 28.3329C18.1252 28.2486 17.9563 28.1643 17.7913 28.0717C17.6693 28.0072 17.5492 27.9394 17.4272 27.8716C17.2882 27.7955 17.1532 27.7161 17.0122 27.6401C16.8812 27.564 16.7463 27.483 16.6103 27.4069C16.3473 27.2548 16.0812 27.101 15.8152 26.9538C15.6112 26.843 15.4082 26.7338 15.2002 26.628C15.0472 26.5519 14.8952 26.4759 14.7382 26.4031C14.1632 26.1369 13.5872 25.8607 12.9992 25.6292C12.7082 25.5134 12.5042 25.4076 12.2662 25.2092C12.0162 25.0025 11.7502 24.9843 11.4622 24.8702C10.2392 24.3757 9.07924 23.6481 7.93224 22.9949C7.65224 22.8345 7.41925 22.6228 7.14825 22.4575C6.84425 22.2723 6.49323 22.1532 6.17123 22.0011C5.82823 21.844 5.54925 21.6075 5.22625 21.4206C4.90625 21.2338 4.55823 21.0899 4.23623 20.8997C4.12523 20.8369 4.00824 20.7641 3.88924 20.693C4.17624 20.7311 4.46424 20.7807 4.76024 20.7856C5.25624 20.7939 5.75625 20.7724 6.25225 20.7691C7.22925 20.7691 8.21123 20.8104 9.18523 20.693C9.65023 20.6335 10.1162 20.6715 10.5862 20.6666C11.0722 20.6633 11.5432 20.5574 12.0302 20.5392C12.9872 20.5111 13.9302 20.3623 14.8872 20.2813C15.0232 20.2697 15.1582 20.2515 15.2942 20.235C15.5732 20.1887 15.8482 20.1341 16.1322 20.096C16.1792 20.0878 16.2252 20.0779 16.2712 20.0746C16.7412 20.015 17.2152 20.0828 17.6852 19.9902C18.5402 19.8248 19.4082 19.6926 20.2522 19.4776C20.3442 19.4561 20.4332 19.4313 20.5212 19.4048C20.6952 19.3552 20.8732 19.3039 21.0472 19.2527H21.0502C22.6862 18.7748 24.2602 18.1943 25.7452 17.3361C27.0452 16.582 28.2822 15.1599 27.9682 13.5509C27.8202 12.7935 27.1132 12.3784 26.4742 12.0559C25.6822 11.6491 24.8902 11.4805 24.0222 11.3201C23.5872 11.239 23.1882 11.2556 22.7492 11.2225C22.2522 11.1795 21.7752 11.1084 21.2702 11.0919C20.3012 11.0621 19.3952 11.1762 18.4312 11.2903C17.4952 11.3994 16.5593 11.4259 15.6233 11.5565C14.7273 11.6839 13.7912 11.8277 12.8842 11.8492C11.7962 11.874 10.6972 12.1287 9.60924 12.1155C9.01224 12.1072 8.42322 12.0229 7.82622 12.0014C7.28422 11.9848 6.76825 11.9799 6.23025 11.8873C5.16725 11.7004 4.09723 11.4639 3.05523 11.1927C2.34723 11.0059 1.31925 10.5908 0.980246 9.84657C0.980246 9.25787 0.976248 8.67417 0.976248 8.08547C1.01825 8.10197 1.06124 8.12847 1.10424 8.14497C1.19624 8.17477 1.28623 8.19627 1.38323 8.20787C1.41323 8.21277 1.44625 8.21277 1.47625 8.21607C1.47925 8.21607 1.48425 8.21277 1.48925 8.21277C1.54425 8.25087 1.61525 8.26737 1.67925 8.24587C2.19525 8.58987 2.88524 8.77177 3.44024 8.92717C4.35824 9.19007 5.42523 9.25787 6.37423 9.18187C6.74323 9.14877 7.09324 9.02147 7.47024 8.99167C7.97024 8.95697 8.45323 8.90737 8.94423 8.79657C9.40823 8.68577 9.88023 8.60967 10.3492 8.51707C10.8142 8.41947 11.2342 8.25087 11.6822 8.11857C12.0542 8.01267 12.4482 7.96307 12.8252 7.86887C13.3002 7.74647 13.7612 7.56957 14.2362 7.46697C15.1502 7.27687 16.0432 7.04867 16.9612 6.87827C17.9022 6.70467 18.8492 6.54427 19.7932 6.40867C20.2522 6.34577 20.6912 6.21357 21.1562 6.19367C21.6992 6.16717 22.2442 6.18867 22.7822 6.23497C24.6872 6.39707 26.6732 6.95107 28.1762 8.17477C28.8902 8.75847 29.4762 9.45637 29.8912 10.2832C30.3092 11.12 30.5082 11.9931 30.8052 12.8695C31.1102 13.7625 31.0882 14.8291 31.0502 15.7601C31.0332 16.248 30.9792 16.7259 30.9312 17.2088C30.8812 17.7462 30.9012 18.2836 30.8382 18.8211C30.7322 19.7322 30.7572 20.6633 30.5842 21.5645C30.4072 22.5038 30.3772 23.4447 30.2962 24.3972C30.2502 24.9347 30.2332 25.5101 30.3012 26.0426ZM35.0682 41.0463C35.0502 39.5729 35.0392 38.0995 35.0392 36.6261C35.0342 33.6759 35.0342 30.7258 35.0292 27.7757C35.0252 21.9415 35.0202 16.1124 35.0122 10.2783C35.0122 8.66587 35.0202 7.04867 35.0092 5.43137C35.0012 4.58797 34.9872 3.74627 34.9792 2.90457C34.9712 2.08597 34.9912 1.32037 34.7622 0.533173C34.7462 0.470373 34.7002 0.435674 34.6482 0.414174C34.5592 0.321574 34.4282 0.261971 34.2602 0.261971C33.3112 0.286771 32.3802 0.199172 31.4492 0.0370718C31.0042 -0.0389282 30.5292 0.0254713 30.0812 0.0254713C29.4922 0.0254713 28.9002 -0.00092816 28.3122 0.0370718C26.0892 0.190872 23.8402 0.218971 21.6092 0.258671C20.5342 0.278571 19.4542 0.283471 18.3802 0.258671C17.3132 0.232271 16.2712 0.384373 15.2052 0.384373H8.23324C6.95424 0.384373 5.67924 0.389374 4.40124 0.392674C3.76624 0.392674 3.13423 0.397571 2.50423 0.334771C1.89423 0.275171 1.37325 0.283472 0.786246 0.473672C0.760246 0.481972 0.738224 0.495174 0.714224 0.508374C0.637224 0.351274 0.401236 0.354573 0.345236 0.533173C-0.0407638 1.87927 0.125237 3.40727 0.108237 4.79967C0.0952367 6.27307 0.100241 7.75147 0.100241 9.22817C0.0952411 12.1783 0.0922455 15.1301 0.0922455 18.0802C0.0832455 23.9094 0.0792472 29.7435 0.0752472 35.5727C0.0702472 38.8618 -0.154767 42.1939 0.198233 45.4665C0.231233 45.7708 0.523224 45.8601 0.714224 45.741C0.738224 45.746 0.75725 45.7543 0.77825 45.7576C1.85325 45.8518 2.95822 45.7873 4.03722 45.7873C5.12622 45.7923 6.20923 45.7923 7.29723 45.7923C9.50323 45.7956 11.7122 45.7956 13.9182 45.8006C18.2612 45.8055 22.6082 45.8601 26.9522 45.8337C28.1712 45.8254 29.3862 45.8088 30.6052 45.8386C31.7232 45.8634 32.8492 45.9957 33.9542 45.7923C34.0182 45.8006 34.0862 45.8055 34.1492 45.8088C34.2472 45.8088 34.3522 45.8006 34.4532 45.7675C34.6402 45.8386 34.8852 45.741 34.9152 45.4665C34.9872 44.767 35.0962 44.0642 35.0962 43.3614C35.1012 42.5875 35.0802 41.8169 35.0682 41.0463ZM18.8622 28.6686C18.6762 28.5545 18.4942 28.4305 18.2952 28.3329C18.1252 28.2486 17.9563 28.1643 17.7913 28.0717C17.6693 28.0072 17.5492 27.9394 17.4272 27.8716C17.2882 27.7955 17.1532 27.7161 17.0122 27.6401C16.8812 27.564 16.7463 27.483 16.6103 27.4069C16.5893 27.6946 16.5722 27.9824 16.5292 28.2701C16.5212 28.3296 16.5132 28.3892 16.4992 28.452C16.4992 28.457 16.4992 28.4652 16.4962 28.4685C16.6232 28.5413 16.7493 28.6124 16.8733 28.6852C17.0173 28.7662 17.1612 28.8423 17.3052 28.9216C17.4902 29.0242 17.6722 29.13 17.8592 29.2358C17.8642 29.2358 17.8642 29.2358 17.8642 29.2391H17.8672C18.1222 29.383 18.3752 29.5269 18.6432 29.6509C18.6462 29.6509 18.6542 29.6459 18.6592 29.641C18.6812 29.6327 18.6922 29.6245 18.7102 29.6129C18.7352 29.5996 18.7572 29.5831 18.7732 29.5616C18.8282 29.5103 18.8762 29.4475 18.9092 29.383C18.9772 29.2606 19.0152 29.13 19.0822 29.0109C19.0992 28.9861 19.1152 28.9564 19.1342 28.9299C19.1452 28.9001 19.1632 28.8753 19.1752 28.8456C19.0662 28.7943 18.9632 28.7364 18.8622 28.6686Z" fill="#FC4B2C"/>
<path d="M29.8962 14.9892C29.7492 14.2516 29.6602 13.4876 29.2992 12.8196C28.9742 12.211 28.5882 11.6074 28.1052 11.113C27.0802 10.0629 25.6632 9.43289 24.2562 9.10209C22.6652 8.72669 20.9852 8.95828 19.3742 9.04418C18.5312 9.08888 17.6772 9.05088 16.8412 9.18148C16.1592 9.28728 15.4932 9.32538 14.8122 9.47088C13.8722 9.67098 12.9172 9.69079 11.9722 9.84789C11.0212 10.0067 10.0512 10.1059 9.0922 10.2134C8.1722 10.3176 7.2182 10.3391 6.2942 10.3374C5.9082 10.3358 5.56621 10.2613 5.19221 10.2002C4.92421 10.1572 4.67518 10.1605 4.40818 10.0993C4.28018 10.0679 3.94718 10.0447 3.86918 9.97529C3.75018 9.86779 3.57221 10.0431 3.69221 10.1539C3.85021 10.2961 3.9072 10.2713 4.1082 10.2994C4.4222 10.3424 4.69018 10.4168 5.00718 10.4466C5.32018 10.4763 5.60219 10.5772 5.91819 10.5954C6.36119 10.6218 6.8052 10.5987 7.2462 10.5838C8.7202 10.5309 10.2132 10.4449 11.6712 10.2018C12.4402 10.0745 13.2142 10.0282 13.9872 9.92728C14.3222 9.88268 14.6532 9.81648 14.9842 9.74868C15.4242 9.65608 15.8252 9.65938 16.2652 9.62798C16.6012 9.60318 16.9282 9.48908 17.2662 9.45768C17.6012 9.42618 17.9402 9.40968 18.2782 9.39808C19.1182 9.37168 19.9552 9.31539 20.7932 9.28399C22.4192 9.22279 23.9432 9.26578 25.4782 9.85618C26.9152 10.4085 28.0762 11.4454 28.8082 12.7881C29.1902 13.4909 29.2702 14.2516 29.4142 15.0272C29.5462 15.7184 29.2322 16.5287 29.0282 17.1985C28.9222 17.5391 28.7972 17.8533 28.5802 18.1361C28.4202 18.3444 28.2922 18.4999 28.1872 18.7463C27.8822 19.4739 27.2212 20.0146 26.5822 20.4628C25.8652 20.9672 25.0682 21.3458 24.2722 21.7113C23.4422 22.0916 22.5942 22.4935 21.7172 22.7548C21.3292 22.8722 20.9122 22.935 20.5422 23.1103C20.1412 23.3005 19.7692 23.5039 19.3592 23.6775C18.9892 23.8346 18.6042 23.9934 18.2462 24.1753C17.9552 24.3224 17.6762 24.6548 17.3422 24.6978C16.8182 24.764 16.9072 25.4932 17.4392 25.4188C17.7072 25.3808 17.9272 25.2551 18.1472 25.1013C18.4632 24.8797 18.7692 24.7358 19.1212 24.5788C19.4682 24.4233 19.8142 24.2778 20.1632 24.129C20.5782 23.952 20.9052 23.6973 21.3492 23.5717C22.9412 23.1169 24.5252 22.4158 25.9642 21.5955C26.6172 21.2235 27.2292 20.7869 27.7762 20.2693C28.0082 20.051 28.2332 19.8195 28.4202 19.5615C28.6562 19.2391 28.7372 18.8554 28.9792 18.5346C29.3512 18.0385 29.5192 17.4862 29.6632 16.8859C29.8172 16.2493 30.0322 15.6473 29.8962 14.9892Z" fill="#FC4B2C"/>
<path d="M22.3279 32.0302C22.3149 32.3312 22.3369 32.6305 22.2899 32.9232C22.1979 33.5119 22.0999 34.0659 21.8999 34.6298C21.8159 34.8629 21.7479 35.1044 21.6589 35.3359C21.5529 35.6253 21.4059 35.8865 21.3159 36.1825C21.1509 36.72 21.0369 37.2839 20.9139 37.8346C20.8499 38.1091 20.8329 38.3555 20.8089 38.6333C20.7789 38.9309 20.6949 39.2236 20.6899 39.5229C20.6859 39.8156 20.7409 40.1067 20.7489 40.3994C20.7569 40.6838 20.8089 40.9616 20.8709 41.2378C21.0199 41.8695 21.1559 42.4995 21.3129 43.1296C21.3759 43.3875 21.4819 43.6637 21.5829 43.9085C21.6769 44.1416 21.7399 44.3533 21.8799 44.5517C21.5789 44.4724 21.2829 44.4889 20.9739 44.4889H17.9379C17.2779 44.4889 16.6129 44.4889 15.9539 44.4938C15.6229 44.4938 15.2889 44.4889 14.9579 44.4938C14.7219 44.4972 14.4669 44.4724 14.2299 44.5236C14.2039 44.4839 14.1709 44.4459 14.1199 44.4294C14.0519 44.3996 14.0049 44.0226 13.9809 43.9382C13.9159 43.6885 13.8189 43.4603 13.7719 43.2056C13.7509 43.0915 13.7089 43.0287 13.6499 42.9311C13.5739 42.8038 13.5569 42.6517 13.5389 42.5078C13.5059 42.2283 13.4849 41.9538 13.4549 41.6777C13.4299 41.3982 13.3749 41.1187 13.3489 40.8359C13.3189 40.5135 13.3159 40.1877 13.2599 39.8702C13.1539 39.2269 13.2099 38.5572 13.3159 37.9189C13.4219 37.2541 13.5389 36.6108 13.7049 35.9543C13.8699 35.3078 14.1109 34.6727 14.2549 34.0162C14.3939 33.3978 14.4499 32.7876 14.2929 32.1658C14.1439 31.5556 13.9709 30.9338 14.0729 30.3071C14.0979 30.1549 14.0819 30.0061 14.0949 29.854C14.1159 29.6555 14.1629 29.4521 14.1959 29.2537C14.2629 28.8634 14.4159 28.5344 14.5729 28.1689C14.6359 28.025 14.6539 27.8382 14.7329 27.7026C14.8009 27.5852 14.9199 27.4578 15.0039 27.3437C15.1099 27.1949 15.2669 27.0609 15.4329 26.9551C15.4329 27.0097 15.4279 27.0642 15.4279 27.1188C15.4279 27.61 15.3599 28.0928 15.3599 28.5889C15.3599 28.961 15.2759 29.4472 15.6389 29.6936C15.9319 29.892 16.3039 29.7911 16.5289 29.5365C16.8549 29.1594 16.8879 28.5757 16.9739 28.1061C17.0229 27.8349 17.0069 27.5818 17.0319 27.3057C17.0369 27.2329 17.0499 27.1701 17.0579 27.1072C17.1639 27.1949 17.2859 27.2759 17.4349 27.3388C17.4049 27.4843 17.3869 27.6232 17.4139 27.7803C17.4469 28.0135 17.5279 28.2367 17.5689 28.4732C17.6369 28.8717 17.8199 29.2868 18.1459 29.5414C18.2769 29.6423 18.4369 29.7184 18.6079 29.6671C18.7469 29.6258 18.8439 29.5017 18.9119 29.3843C18.9799 29.262 19.0179 29.1297 19.0859 29.0123C19.1319 28.9312 19.1859 28.8552 19.2129 28.7659C19.2429 28.66 19.2429 28.5459 19.2539 28.4401C19.2719 28.3128 19.2839 28.1954 19.2919 28.068C19.2969 27.9407 19.3399 27.8183 19.3519 27.691C19.3649 27.5934 19.3729 27.4876 19.3729 27.3851C19.4659 27.3437 19.5549 27.2974 19.6439 27.2428C19.6609 27.5504 19.7539 27.8679 19.8179 28.1656C19.8689 28.407 19.9749 28.7543 20.2119 28.8849C20.4399 29.0073 20.7329 29.042 20.9479 28.8849C21.0959 28.7741 21.2189 28.6137 21.3079 28.4368C21.3679 28.5674 21.4439 28.6981 21.5109 28.8122C21.6389 29.0238 21.7229 29.257 21.8369 29.4769C22.1029 30.0028 22.1629 30.6461 22.2659 31.2166C22.3149 31.4928 22.3419 31.7507 22.3279 32.0302Z" fill="#FC4B2C"/>
<path d="M18.2749 22.9872V23.0203C18.2749 23.0418 18.2719 23.0666 18.2589 23.0881C18.2499 23.0963 18.2419 23.1046 18.2369 23.1129C18.2199 23.1311 18.1989 23.1426 18.1769 23.1476C18.1659 23.1509 18.1529 23.1509 18.1389 23.1559C18.1229 23.1559 18.1009 23.1509 18.0899 23.1426C18.0719 23.1393 18.0549 23.1261 18.0419 23.1129C18.0299 23.1013 18.0219 23.0881 18.0169 23.0715C18.0089 23.055 18.0039 23.0368 18.0039 23.0203V22.9872C18.0039 22.9607 18.0139 22.9392 18.0249 22.9194C18.0299 22.9111 18.0389 22.9012 18.0469 22.8896C18.0629 22.8731 18.0799 22.8632 18.1059 22.8549C18.1149 22.8549 18.1279 22.8516 18.1389 22.8516C18.1579 22.8516 18.1739 22.8549 18.1909 22.8632C18.2069 22.8681 18.2249 22.8764 18.2339 22.8896C18.2449 22.9012 18.2589 22.9194 18.2629 22.9359C18.2719 22.9492 18.2749 22.9657 18.2749 22.9872Z" fill="#FC4B2C"/>
<path d="M18.7404 23.2228C18.4824 23.2228 18.4824 22.8242 18.7404 22.8242C18.9934 22.8242 18.9934 23.2228 18.7404 23.2228Z" fill="#FC4B2C"/>
<path d="M19.267 24.7809C19.255 24.8867 19.234 24.9925 19.226 25.1033C19.221 25.1959 19.207 25.2885 19.188 25.3778C19.145 25.5597 19.034 25.7202 18.916 25.8607C18.802 25.9963 18.653 26.0972 18.467 26.0889C18.303 26.0807 18.073 26.0261 17.972 25.8773C17.88 25.7416 17.866 25.5382 17.832 25.3778C17.812 25.272 17.785 25.1662 17.777 25.0554C17.769 24.9545 17.777 24.8487 17.777 24.7478C17.777 24.5394 17.761 24.3443 17.812 24.1426C17.832 24.045 17.866 23.9507 17.888 23.8532C17.909 23.7738 17.937 23.6977 17.994 23.6415C18.073 23.5572 18.176 23.5274 18.281 23.5109C18.382 23.4398 18.505 23.3918 18.645 23.4017C18.827 23.4133 18.933 23.5026 19.039 23.6382C19.112 23.7275 19.14 23.7854 19.161 23.8962C19.183 23.9937 19.226 24.083 19.234 24.1806C19.255 24.379 19.288 24.5824 19.267 24.7809Z" fill="#FC4B2C"/>
<path d="M17.804 21.658V21.7043C17.804 21.7126 17.804 21.7126 17.8 21.7176V21.7291C17.79 21.7672 17.782 21.8052 17.771 21.8432C17.771 21.8432 17.766 21.8482 17.766 21.8532V21.8565C17.761 21.8614 17.761 21.8647 17.761 21.8647C17.757 21.873 17.752 21.8813 17.749 21.8912C17.733 21.916 17.714 21.9408 17.698 21.9673V21.9706C17.695 21.9755 17.695 21.9755 17.69 21.9788C17.681 21.9921 17.673 22.0003 17.665 22.0086C17.655 22.0218 17.643 22.0301 17.635 22.0384C17.635 22.0384 17.613 22.0549 17.609 22.0599C17.508 22.1409 17.405 22.174 17.271 22.1905C17.241 22.1955 17.155 22.1988 17.106 22.1988C17.02 22.1988 16.94 22.2037 16.859 22.1988C16.732 22.1872 16.631 22.1492 16.563 22.0549C16.525 22.0003 16.504 21.954 16.491 21.8912C16.482 21.8482 16.487 21.8184 16.509 21.7754C16.58 21.6283 16.686 21.4844 16.835 21.4C16.902 21.362 16.974 21.3438 17.05 21.324C17.055 21.324 17.055 21.3273 17.06 21.3273C17.155 21.319 17.25 21.3025 17.347 21.2859C17.427 21.2678 17.508 21.2595 17.584 21.2893C17.638 21.3141 17.681 21.3438 17.706 21.3653C17.719 21.3785 17.733 21.3918 17.741 21.4034C17.744 21.4083 17.741 21.4083 17.749 21.4166C17.757 21.4298 17.766 21.4414 17.771 21.4546C17.774 21.4678 17.779 21.4678 17.779 21.4712C17.779 21.4712 17.782 21.4761 17.782 21.4877C17.79 21.5059 17.795 21.5224 17.8 21.539C17.8 21.5472 17.804 21.5638 17.804 21.5687C17.809 21.5985 17.809 21.6283 17.804 21.658ZM17.85 20.9337C17.57 20.7766 17.291 20.8576 17.003 20.9337C16.982 20.9387 16.965 20.9503 16.954 20.9585C16.864 20.98 16.775 20.9966 16.691 21.0395C16.496 21.1371 16.339 21.3058 16.229 21.4927C16.119 21.6795 16.072 21.8647 16.157 22.0764C16.238 22.2765 16.377 22.4452 16.585 22.5163C16.775 22.5841 16.992 22.5725 17.185 22.5725C17.377 22.5758 17.567 22.5345 17.736 22.4452C18.07 22.2715 18.27 21.8945 18.227 21.5175C18.197 21.276 18.067 21.0528 17.85 20.9337Z" fill="#FC4B2C"/>
<path d="M17.0027 21.9112C16.8377 21.9112 16.8377 21.6582 17.0027 21.6582C17.1627 21.6582 17.1627 21.9112 17.0027 21.9112Z" fill="#FC4B2C"/>
<path d="M17.8669 29.2391C17.8959 29.2821 17.9259 29.3233 17.9639 29.3663C17.9769 29.3828 17.9939 29.4044 18.0099 29.421C18.0489 29.464 18.0949 29.5019 18.1429 29.5399C18.2729 29.6408 18.4339 29.7186 18.6039 29.6674C18.6159 29.6624 18.6289 29.6591 18.6419 29.6508C18.3739 29.5268 18.1209 29.3829 17.8669 29.2391ZM22.3249 32.0287C22.3119 32.3297 22.3329 32.6306 22.2869 32.9217C22.1939 33.5104 22.0969 34.0661 21.8969 34.6284C21.8249 34.8185 21.7709 35.0186 21.6979 35.2121C21.6849 35.2551 21.6729 35.2931 21.6549 35.3361C21.5489 35.6189 21.4049 35.8817 21.3179 36.1744C21.3129 36.1777 21.3129 36.1777 21.3129 36.1827C21.1469 36.7201 21.0329 37.2825 20.9109 37.8332C20.8469 38.1077 20.8299 38.354 20.8049 38.6334C20.7749 38.9294 20.6909 39.2221 20.6859 39.5231C20.6829 39.8141 20.7369 40.1069 20.7459 40.398C20.7459 40.436 20.7509 40.4707 20.7539 40.5088C20.7589 40.5716 20.7619 40.6312 20.7699 40.6907C20.7749 40.7535 20.7839 40.8131 20.7969 40.8726C20.8129 40.995 20.8379 41.114 20.8679 41.2364C20.9439 41.5539 21.0169 41.8763 21.0879 42.1938C21.1609 42.5063 21.2319 42.8155 21.3099 43.1297C21.3719 43.3877 21.4779 43.6622 21.5789 43.9086C21.6729 44.1401 21.7359 44.3519 21.8769 44.552C21.5759 44.471 21.2799 44.4875 20.9709 44.4875H17.9339C17.2749 44.4875 16.6099 44.4874 15.9499 44.4924C15.6189 44.4924 15.2849 44.4874 14.9549 44.4924C14.7179 44.4973 14.4629 44.471 14.2269 44.5222C14.1999 44.4842 14.1669 44.4462 14.1159 44.4296C14.0479 44.3999 14.0019 44.0227 13.9769 43.9384C13.9129 43.6887 13.8149 43.4589 13.7689 43.2059C13.7469 43.0918 13.7059 43.0273 13.6459 42.9297C13.5699 42.8041 13.5539 42.6502 13.5359 42.5063C13.5029 42.2268 13.4809 41.9524 13.4509 41.6779C13.4269 41.3985 13.3719 41.119 13.3449 40.8346C13.3159 40.5137 13.3119 40.1863 13.2559 39.8688C13.1499 39.2255 13.2069 38.5575 13.3119 37.9175C13.3449 37.6943 13.3839 37.4693 13.4269 37.2444C13.4729 36.9913 13.5239 36.7367 13.5789 36.482C13.6169 36.3051 13.6549 36.1315 13.7009 35.9529C13.7559 35.738 13.8199 35.5213 13.8879 35.3064C14.0189 34.8781 14.1539 34.4513 14.2519 34.0148C14.3909 33.3963 14.4469 32.7878 14.2899 32.1644C14.2219 31.8982 14.1539 31.627 14.1079 31.3558C14.0909 31.2681 14.0729 31.1738 14.0649 31.0845C14.0479 30.9538 14.0399 30.8265 14.0399 30.6959C14.0399 30.5652 14.0479 30.4379 14.0699 30.3056C14.0949 30.1535 14.0779 30.0063 14.0909 29.8525C14.0909 29.8442 14.0909 29.841 14.0949 29.8327C14.1079 29.7352 14.1209 29.6408 14.1379 29.5399C14.1589 29.4473 14.1759 29.3449 14.1919 29.2523C14.2599 28.862 14.4119 28.533 14.5689 28.1692C14.6319 28.0253 14.6499 27.8384 14.7299 27.7028C14.7589 27.6516 14.8019 27.597 14.8439 27.5424C14.8949 27.4746 14.9549 27.4067 15.0009 27.3422C15.1069 27.195 15.2639 27.0594 15.4289 26.9536C15.4289 27.0082 15.4239 27.0629 15.4239 27.1191C15.4239 27.3605 15.4079 27.6019 15.3909 27.8417C15.3729 28.0881 15.3559 28.3377 15.3559 28.5874C15.3559 28.9595 15.2719 29.4473 15.6359 29.6921C15.9289 29.8922 16.3009 29.7897 16.5249 29.5351C16.5669 29.4855 16.6049 29.4342 16.6399 29.3747C16.6639 29.3333 16.6859 29.2902 16.7069 29.2472C16.7239 29.2092 16.7399 29.1679 16.7539 29.1249C16.7669 29.0951 16.7779 29.062 16.7869 29.0323C16.7999 28.9893 16.8129 28.9513 16.8209 28.91C16.8349 28.8753 16.8429 28.8371 16.8459 28.8041C16.8549 28.7611 16.8639 28.7231 16.8729 28.6851C16.9109 28.4867 16.9359 28.2866 16.9699 28.1047C16.9979 27.9476 17.0079 27.792 17.0119 27.6399C17.0169 27.5291 17.0199 27.4184 17.0279 27.3043C17.0329 27.2332 17.0459 27.1687 17.0549 27.1059C17.1599 27.1951 17.2829 27.2745 17.4319 27.339C17.4019 27.4829 17.3839 27.6217 17.4099 27.7788C17.4139 27.8086 17.4179 27.8417 17.4269 27.8715C17.4429 27.9575 17.4649 28.0418 17.4859 28.1262C17.4989 28.1807 17.5159 28.2402 17.5279 28.2947C17.5409 28.3543 17.5539 28.4139 17.5659 28.4734C17.5789 28.533 17.5869 28.5875 17.6049 28.6421C17.6169 28.7016 17.6329 28.7612 17.6549 28.8157C17.6629 28.8505 17.6759 28.8835 17.6929 28.9183C17.7109 28.9679 17.7359 29.0158 17.7569 29.0621C17.7869 29.1217 17.8199 29.1762 17.8579 29.2308V29.2357C17.8629 29.2357 17.8629 29.2358 17.8629 29.2391H17.8669C17.8959 29.2821 17.9259 29.3233 17.9639 29.3663C17.9769 29.3828 17.9939 29.4044 18.0099 29.421C18.0489 29.464 18.0949 29.5019 18.1429 29.5399C18.2729 29.6408 18.4339 29.7186 18.6039 29.6674C18.6159 29.6624 18.6289 29.6591 18.6419 29.6508C18.6449 29.6508 18.6539 29.6458 18.6589 29.6408C18.6799 29.6325 18.6919 29.6243 18.7099 29.6127C18.7349 29.5995 18.7559 29.5829 18.7729 29.5614C18.8269 29.5102 18.8749 29.4474 18.9079 29.3829C18.9759 29.2606 19.0139 29.1298 19.0819 29.0108C19.0989 28.986 19.1149 28.9562 19.1329 28.9297C19.1449 28.9 19.1629 28.8753 19.1749 28.8455C19.1879 28.8207 19.2009 28.7942 19.2089 28.7661C19.2389 28.6603 19.2389 28.5445 19.2509 28.4387C19.2689 28.313 19.2799 28.194 19.2889 28.0666C19.2939 27.9393 19.3369 27.8169 19.3479 27.6896C19.3619 27.592 19.3699 27.4861 19.3699 27.3852C19.4619 27.3422 19.5519 27.2959 19.6409 27.2414C19.6579 27.5506 19.7499 27.8681 19.8149 28.1641C19.8659 28.4055 19.9719 28.7528 20.2079 28.8834C20.4359 29.0058 20.7289 29.0405 20.9439 28.8834C21.0929 28.7743 21.2149 28.6122 21.3049 28.4353C21.3639 28.5659 21.4399 28.6982 21.5079 28.8123C21.6349 29.024 21.7199 29.2573 21.8339 29.4772C21.8669 29.54 21.8969 29.6078 21.9229 29.6806C21.9479 29.7302 21.9639 29.7863 21.9829 29.8442C21.9939 29.8707 22.0019 29.9005 22.0069 29.9303C22.0289 29.9882 22.0449 30.0476 22.0589 30.1071C22.0749 30.1799 22.0919 30.2511 22.1079 30.3239C22.1209 30.395 22.1349 30.4627 22.1459 30.5354C22.1679 30.6495 22.1839 30.7671 22.2059 30.8828C22.2219 30.9969 22.2439 31.1061 22.2619 31.2169C22.2999 31.4153 22.3199 31.6055 22.3249 31.8006C22.3279 31.8767 22.3279 31.9526 22.3249 32.0287ZM15.8089 26.7454C15.8519 26.6875 15.8519 26.6063 15.8179 26.5468V26.5304C15.8609 26.1666 15.7709 25.8142 15.7419 25.4587C15.7249 25.29 15.6659 25.1413 15.6189 24.9809C15.5679 24.8205 15.5129 24.6666 15.4619 24.5062C15.4159 24.3458 15.3179 24.2103 15.2639 24.0499C15.2089 23.8845 15.1149 23.7439 15.0519 23.5884C14.8919 23.2064 14.9379 22.6144 15.0519 22.2241C15.0899 22.0985 15.1909 22.0308 15.3019 21.9712C15.3729 22.1068 15.4489 22.2457 15.4999 22.3946C15.6739 22.894 16.0379 23.2908 16.2329 23.7819C16.4489 24.3408 16.4229 24.837 16.4359 25.4175C16.4439 25.8524 16.5069 26.284 16.6909 26.6494C16.6479 26.8991 16.6259 27.1521 16.6099 27.4067C16.5879 27.6945 16.5719 27.9823 16.5289 28.27C16.5209 28.3296 16.5119 28.3891 16.4989 28.4519C16.4989 28.4569 16.4989 28.4652 16.4959 28.4685C16.4659 28.6305 16.4279 28.7908 16.3729 28.9512C16.3219 29.1083 16.2409 29.3233 16.0639 29.3795C15.7709 29.4688 15.7579 29.1166 15.7579 28.9215C15.7629 28.728 15.7629 28.5329 15.7629 28.3377C15.7629 28.2451 15.7709 28.1558 15.7799 28.0632C15.7929 27.9475 15.8089 27.8335 15.8179 27.7161C15.8309 27.4614 15.8139 27.2066 15.8139 26.9536C15.8089 26.8858 15.8089 26.8132 15.8089 26.7454ZM18.9679 27.6433C18.9549 27.7624 18.9219 27.8813 18.9129 27.9987C18.8999 28.1211 18.9079 28.2369 18.8919 28.3592C18.8789 28.4601 18.8869 28.5709 18.8619 28.6685C18.8319 28.766 18.7649 28.8504 18.7269 28.943C18.6749 29.062 18.6419 29.1976 18.5579 29.2985C18.4689 29.4126 18.3359 29.282 18.2599 29.2059C18.0949 29.0455 18.0099 28.8538 17.9309 28.6421C17.8929 28.528 17.8799 28.4189 17.8499 28.2998C17.8339 28.2237 17.8119 28.1476 17.7909 28.0715C17.7769 28.0252 17.7659 27.9772 17.7529 27.9309C17.7189 27.8086 17.6809 27.6812 17.6809 27.5539C17.6809 27.5159 17.6849 27.4746 17.6929 27.4316C18.1129 27.559 18.5579 27.5919 18.9709 27.5043C18.9709 27.5506 18.9709 27.597 18.9679 27.6433ZM20.0779 21.6703C20.0509 21.7298 19.9999 21.8141 19.9539 21.8489C19.9369 21.8571 19.9069 21.8603 19.8769 21.8686C19.8279 21.8769 19.7769 21.8901 19.7299 21.9116C19.6579 21.9414 19.5949 21.9877 19.5189 21.9959C19.4589 22.0042 19.3949 22.001 19.3369 22.001C19.2799 21.996 19.2179 22.0009 19.1579 21.9959C19.0309 21.9827 18.8489 21.92 18.7889 21.7926C18.7269 21.662 18.8409 21.4833 18.9409 21.3957C18.9809 21.3609 19.0139 21.3362 19.0569 21.3098C19.0989 21.323 19.1499 21.3098 19.1829 21.28C19.2039 21.28 19.2259 21.2716 19.2469 21.2601C19.2589 21.2551 19.2769 21.242 19.2889 21.2304C19.3699 21.2767 19.4619 21.1873 19.4459 21.1079C19.4889 21.1079 19.5269 21.103 19.5679 21.1079C19.5729 21.1079 19.5899 21.1112 19.5949 21.1112C19.6059 21.1112 19.6189 21.1163 19.6279 21.1163C19.6619 21.1196 19.6919 21.1278 19.7219 21.1327C19.7769 21.1493 19.8359 21.1658 19.8909 21.184C19.9039 21.1873 19.9149 21.1957 19.9289 21.2006H19.9339L19.9369 21.2039C19.9579 21.2139 19.9799 21.2221 19.9999 21.2337C20.0129 21.242 20.0259 21.2518 20.0399 21.2601L20.0429 21.2635C20.0939 21.3776 20.1239 21.5644 20.0779 21.6703ZM16.1399 20.0777C16.2029 19.7602 16.3439 19.4526 16.5929 19.2409C16.6779 19.1731 16.8079 19.1351 16.9059 19.0706C16.9189 19.0623 16.9309 19.0541 16.9439 19.0408C17.1389 18.9052 17.2959 18.7367 17.5159 18.6259C17.8959 18.4357 18.3109 18.2917 18.7349 18.2405C18.7889 18.2322 18.8409 18.2323 18.8919 18.2323C18.9379 18.2323 18.9839 18.2372 19.0269 18.2405C19.0689 18.2454 19.1069 18.2537 19.1449 18.2669C19.1709 18.2669 19.1959 18.2752 19.2209 18.2884C19.2509 18.2967 19.2769 18.3083 19.3069 18.3215C19.3649 18.3463 19.4239 18.381 19.4839 18.4224C19.5139 18.4406 19.5429 18.4622 19.5679 18.487C19.5979 18.5085 19.6239 18.5332 19.6539 18.558C19.7039 18.601 19.7499 18.6473 19.8009 18.6985C19.8389 18.7366 19.8739 18.7797 19.9069 18.821C19.9289 18.8458 19.9499 18.8756 19.9669 18.9053C20.0859 19.0839 20.1649 19.279 20.2509 19.4774C20.2789 19.5535 20.3089 19.6263 20.3439 19.7024C20.5009 20.0662 20.4329 20.4598 20.4069 20.8368C20.3979 20.9972 20.4069 21.1461 20.3979 21.3015C20.3689 21.1461 20.3059 21.0104 20.1539 20.9293C20.0179 20.8566 19.8659 20.8152 19.7119 20.7904C19.5379 20.7606 19.3479 20.7425 19.1799 20.807C19.0989 20.84 19.0269 20.8997 18.9809 20.9675C18.9329 20.9923 18.8919 21.0187 18.8539 21.0485C18.6669 21.1791 18.5019 21.3477 18.4599 21.5809C18.4119 21.8488 18.5399 22.0771 18.7809 22.1945C18.8949 22.2507 19.0139 22.2805 19.1419 22.292C19.2769 22.3053 19.4289 22.3102 19.5649 22.292C19.6869 22.2755 19.7799 22.1994 19.8989 22.1746C20.0049 22.1449 20.0969 22.1315 20.1829 22.0505C20.2209 22.0125 20.2589 21.9629 20.2929 21.9116C20.2759 21.9959 20.2589 22.0804 20.2409 22.1614C20.2209 22.2672 20.1999 22.3779 20.1829 22.4871C20.1649 22.5764 20.1539 22.6607 20.1449 22.745C20.1269 22.8343 20.1189 22.9269 20.1109 23.0212C20.1059 23.0328 20.1059 23.046 20.1059 23.0543C20.0969 23.127 20.0889 23.2032 20.0859 23.2743C20.0859 23.2958 20.0809 23.3172 20.0809 23.3337V23.3387C20.0779 23.3883 20.0729 23.4396 20.0729 23.4908C20.0639 23.7141 20.0679 23.939 20.0729 24.1672C20.0729 24.359 20.0779 24.5526 20.0779 24.7477C20.0729 25.2389 19.8689 25.586 19.6359 26.0044C19.4619 26.3186 19.2719 26.6311 18.9129 26.7419C18.5359 26.861 17.9939 26.8345 17.6329 26.6741C17.5379 26.6311 17.4599 26.5716 17.3969 26.4955C17.3749 26.4757 17.3589 26.4493 17.3459 26.4245C17.2779 26.3319 17.2369 26.2211 17.2099 26.1021C17.2019 26.0723 17.1989 26.0425 17.1939 26.0144C17.1689 25.8821 17.1639 25.7464 17.1639 25.6108C17.1639 25.5315 17.1689 25.4554 17.1719 25.3793C17.1769 25.209 17.1899 25.0519 17.1899 24.918C17.1899 24.8882 17.1899 24.8585 17.1849 24.8288C17.1899 24.799 17.1899 24.7692 17.1819 24.7444C17.1769 24.6667 17.1719 24.5873 17.1639 24.5113C17.1639 24.4732 17.1559 24.4351 17.1469 24.4004C17.1389 24.3375 17.1259 24.2731 17.1089 24.2103C17.0549 23.9556 16.9649 23.7109 16.8509 23.4744C16.8079 23.3851 16.7669 23.3007 16.7189 23.2147C16.6729 23.1303 16.6259 23.0511 16.5719 22.9651C16.5209 22.8857 16.4689 22.8047 16.4149 22.7286C16.1649 22.3681 15.9999 21.9711 15.8179 21.5809C15.7549 21.4453 15.7279 21.2767 15.7329 21.1031C15.7659 20.9807 15.7929 20.8567 15.8309 20.7343C15.8819 20.5573 15.9829 20.3952 16.0459 20.2265C16.0509 20.2133 16.0559 20.205 16.0589 20.1934C16.0759 20.1835 16.0889 20.167 16.1019 20.1504C16.1139 20.1339 16.1239 20.1157 16.1319 20.0959C16.1349 20.0909 16.1399 20.0826 16.1399 20.0777ZM21.1689 21.4502C21.4429 21.7214 21.7739 22.0389 21.7989 22.4325C21.8089 22.5301 21.8089 22.6277 21.7989 22.7286C21.7819 22.9833 21.7229 23.2412 21.6349 23.4827C21.6139 23.5372 21.5919 23.5967 21.5679 23.6512C21.4149 24.0117 21.3669 24.417 21.2119 24.7725C21.0579 25.1165 21.0199 25.5613 21.0039 25.9367C20.9949 26.1285 21.0249 26.3103 21.0549 26.4955C21.0849 26.7171 21.0759 26.9321 21.0679 27.1521C21.0469 27.5804 21.1359 28.0071 20.9109 28.3924C20.7969 28.5875 20.6699 28.7148 20.4359 28.6222C20.2679 28.5544 20.2029 28.3891 20.1489 28.2188C20.0299 27.8384 19.9619 27.4366 19.8909 27.043C19.9369 26.9951 19.9879 26.9569 20.0299 26.9073C20.3219 26.56 20.5769 26.1235 20.7589 25.7134C21.0039 25.1577 20.9789 24.536 20.9409 23.939C20.9359 23.8712 20.9319 23.8002 20.9359 23.7324C20.9279 23.4744 20.9359 23.2147 20.9619 22.9567C21.0039 22.454 21.0879 21.9496 21.1689 21.4502ZM22.7269 31.4747C22.6969 31.2631 22.6669 31.0514 22.6289 30.8348C22.5609 30.4114 22.4689 29.9881 22.3329 29.5912C22.2439 29.3332 22.1169 29.0836 22.0019 28.8372C21.8929 28.5958 21.6849 28.3543 21.6269 28.1013C21.6139 28.0335 21.5489 27.9657 21.4819 27.9524C21.4699 27.9524 21.4619 27.9475 21.4479 27.9475C21.4859 27.5837 21.4819 27.1985 21.4779 26.8396C21.4779 26.6395 21.4429 26.4576 21.4189 26.2674C21.3859 26.0425 21.4049 25.8357 21.4319 25.6108C21.4779 25.2255 21.5589 24.87 21.6729 24.5029C21.7359 24.3028 21.7789 24.0962 21.8419 23.9011C21.9049 23.7142 22.0069 23.5454 22.0539 23.3552V23.3504C22.1129 23.1222 22.1639 22.8591 22.1729 22.6061C22.1809 22.4441 22.1729 22.2837 22.1379 22.1365C22.0499 21.7429 21.6769 21.3743 21.4049 21.0948C21.3509 21.0402 21.2879 21.027 21.2319 21.0402C21.2529 20.8831 21.2749 20.7259 21.2909 20.5688C21.3379 20.167 21.2319 19.6511 21.0629 19.2873C21.0579 19.2741 21.0549 19.2657 21.0499 19.2525H21.0469C20.9569 19.0458 20.9239 18.8259 20.8079 18.6307C20.7409 18.5166 20.6609 18.4058 20.5769 18.3C20.4709 18.1694 20.3519 18.0503 20.2379 17.9362C19.8479 17.5592 19.4509 17.3559 18.8949 17.3443C18.2679 17.3311 17.6139 17.5808 17.0659 17.8602C16.7829 18.0041 16.6229 18.1942 16.4009 18.4191C16.2539 18.5629 16.1399 18.6523 16.0639 18.8293C15.9829 18.9186 15.9149 19.016 15.8519 19.1169C15.7039 19.3468 15.5899 19.5965 15.4669 19.828C15.3909 19.9636 15.3349 20.0992 15.2939 20.2348C15.1959 20.5143 15.1579 20.8021 15.1449 21.1163C15.1409 21.285 15.1229 21.4635 15.1609 21.6321C15.0979 21.6536 15.0309 21.6751 14.9979 21.6999C14.8569 21.7892 14.7509 21.9249 14.6999 22.0853C14.5739 22.4657 14.5559 22.965 14.6159 23.3635C14.6449 23.5917 14.7349 23.7621 14.8349 23.9655C14.9329 24.1508 15.0059 24.3542 15.0979 24.541C15.1409 24.6287 15.1449 24.7345 15.1739 24.8238C15.2039 24.9081 15.2469 24.9892 15.2719 25.0785C15.3019 25.1711 15.3529 25.2736 15.3729 25.3695C15.3939 25.4935 15.3859 25.6242 15.4109 25.7548C15.4589 26.0045 15.4589 26.2591 15.4459 26.5137C15.3559 26.5385 15.2769 26.5816 15.1989 26.6279C14.9159 26.8016 14.6919 27.0926 14.4799 27.3522C14.4679 27.3721 14.4499 27.3903 14.4339 27.4101C14.3529 27.5044 14.3109 27.597 14.2809 27.7194C14.2269 27.9095 14.1539 28.0832 14.0699 28.2651C13.9209 28.5958 13.8229 28.9264 13.7659 29.2853C13.7469 29.3795 13.7309 29.4771 13.7139 29.5747C13.7009 29.6375 13.6929 29.7003 13.6839 29.7648C13.6679 29.9203 13.6839 30.0775 13.6599 30.2346C13.6379 30.395 13.5949 30.5388 13.6079 30.7041C13.6079 30.7256 13.6119 30.7472 13.6169 30.7671C13.6329 30.9159 13.6599 31.0563 13.6599 31.2118C13.6599 31.5458 13.7769 31.8684 13.8579 32.1859C13.9589 32.5927 13.9849 32.978 13.9209 33.3931C13.8419 33.9388 13.6459 34.468 13.4779 35.0004C13.4299 35.1443 13.3839 35.293 13.3419 35.4419C13.2739 35.6783 13.2149 35.9148 13.1599 36.1529C13.0409 36.6441 12.9389 37.1436 12.8629 37.6513C12.7649 38.3028 12.6479 39.0106 12.7319 39.6704C12.8209 40.3302 12.8679 40.9999 12.9679 41.6597C13.0199 42.0202 13.0279 42.3839 13.0879 42.7444C13.1169 42.8966 13.1549 43.0438 13.2359 43.1761C13.3119 43.2985 13.3069 43.3994 13.3419 43.5399C13.4099 43.8029 13.5159 44.0774 13.5999 44.3403C13.6709 44.5636 13.7659 44.7719 13.9969 44.8612C14.0529 44.8811 14.0949 44.8778 14.1379 44.8612C14.1759 44.8728 14.2089 44.881 14.2469 44.8909H14.2569C14.4679 44.9289 14.6919 44.9108 14.9029 44.9158H15.8989C16.5749 44.9208 17.2579 44.9207 17.9339 44.9207H20.9139C21.2069 44.9207 21.4909 44.9406 21.7789 44.8811H21.7819C21.8209 44.8728 21.8639 44.8645 21.9019 44.853C21.9909 44.8265 22.0159 44.7371 21.9989 44.666C22.0969 44.6908 22.2189 44.5982 22.1839 44.4841C22.0449 44.0178 21.8589 43.5648 21.7329 43.1001C21.6769 42.9099 21.6439 42.7147 21.6059 42.5195H21.6009C21.5839 42.4517 21.5679 42.3839 21.5489 42.3161C21.4619 42.0119 21.3969 41.711 21.3429 41.4018C21.3049 41.2199 21.2579 41.038 21.2239 40.8511C21.2039 40.7634 21.1899 40.674 21.1819 40.5848C21.1559 40.2838 21.1359 39.9747 21.1139 39.6704C21.0979 39.3694 21.1639 39.0817 21.2069 38.7906C21.2449 38.4847 21.2579 38.2018 21.3209 37.9009C21.3759 37.6346 21.4429 37.3801 21.5109 37.1171C21.5759 36.8856 21.6169 36.6524 21.6769 36.4193C21.6929 36.3432 21.7109 36.2704 21.7359 36.1993C21.8119 35.9496 21.9399 35.7247 22.0319 35.48C22.0369 35.4668 22.0399 35.4534 22.0449 35.4419C22.1379 35.1955 22.2139 34.9376 22.3029 34.6929C22.4939 34.1422 22.5879 33.5997 22.6799 33.0325C22.7229 32.7877 22.7229 32.5497 22.7229 32.3C22.7229 32.2157 22.7319 32.1263 22.7349 32.037C22.7429 31.8518 22.7479 31.6616 22.7269 31.4747ZM17.9639 29.3663C17.9769 29.3828 17.9939 29.4044 18.0099 29.421C18.0489 29.464 18.0949 29.5019 18.1429 29.5399C18.2729 29.6408 18.4339 29.7186 18.6039 29.6674C18.6159 29.6624 18.6289 29.6591 18.6419 29.6508C18.3739 29.5268 18.1209 29.3829 17.8669 29.2391C17.8959 29.2821 17.9259 29.3233 17.9639 29.3663Z" fill="#FC4B2C"/>
<path d="M21.8006 22.4315C21.8296 22.8516 21.7327 23.2699 21.5667 23.6519C21.4147 24.0108 21.3686 24.4176 21.2116 24.7731C21.0596 25.1154 21.0216 25.5603 21.0026 25.9373C20.9946 26.1275 21.0246 26.3094 21.0546 26.4962C21.0846 26.7162 21.0756 26.9328 21.0676 27.1527C21.0456 27.5794 21.1356 28.0077 20.9106 28.393C20.7966 28.5881 20.6686 28.7138 20.4356 28.6212C20.2676 28.5534 20.2046 28.388 20.1486 28.2193C20.0306 27.8373 19.9626 27.4355 19.8906 27.0419C19.9366 26.9956 19.9876 26.9576 20.0306 26.9063C20.3216 26.5591 20.5766 26.1242 20.7586 25.7124C21.0026 25.1584 20.9786 24.5366 20.9406 23.9397C20.8886 23.1046 21.0376 22.2761 21.1686 21.4492C21.4446 21.7204 21.7736 22.038 21.8006 22.4315Z" fill="#F5F5F5"/>
<path d="M18.9746 27.5027C18.9746 27.549 18.9746 27.5953 18.9696 27.6432C18.9566 27.7606 18.9236 27.8797 18.9156 27.9988C18.9016 28.1211 18.9106 28.2352 18.8936 28.3576C18.8806 28.4601 18.8886 28.5693 18.8636 28.6669C18.8336 28.7644 18.7666 28.8488 18.7286 28.943C18.6766 29.0604 18.6436 29.196 18.5596 29.2986C18.4706 29.4127 18.3396 29.2804 18.2636 29.2043C18.0986 29.0439 18.0136 28.8537 17.9326 28.642C17.8946 28.5279 17.8816 28.4172 17.8516 28.2981C17.8266 28.1757 17.7836 28.0533 17.7546 27.931C17.7216 27.8069 17.6836 27.6813 17.6836 27.5539C17.6836 27.5159 17.6866 27.4729 17.6966 27.4316C18.1146 27.5572 18.5596 27.592 18.9746 27.5027Z" fill="#F5F5F5"/>
<path d="M19.837 21.5393C19.837 21.5773 19.829 21.6121 19.812 21.6418C19.799 21.6534 19.791 21.6666 19.778 21.6799C19.753 21.7047 19.726 21.7212 19.693 21.7295C19.677 21.7344 19.655 21.7344 19.639 21.7377C19.612 21.7377 19.588 21.7344 19.561 21.7212C19.541 21.7129 19.52 21.6997 19.498 21.6799C19.482 21.6617 19.469 21.6418 19.46 21.6154C19.447 21.5939 19.444 21.5691 19.444 21.5393C19.439 21.5228 19.439 21.5062 19.435 21.4847C19.435 21.45 19.447 21.4169 19.465 21.3822C19.473 21.3706 19.485 21.3574 19.495 21.3409C19.52 21.3144 19.55 21.2979 19.588 21.2896C19.604 21.2896 19.621 21.2863 19.639 21.2813C19.667 21.2813 19.693 21.2863 19.718 21.2979C19.745 21.3061 19.765 21.3243 19.783 21.3409C19.803 21.3624 19.816 21.3822 19.824 21.4087C19.837 21.4335 19.846 21.4583 19.841 21.4847C19.841 21.5062 19.837 21.5228 19.837 21.5393ZM20.044 21.2648L20.041 21.2598C20.027 21.2516 20.014 21.2433 20.003 21.235C19.981 21.2218 19.96 21.2135 19.938 21.2053L19.935 21.2003H19.93C19.918 21.197 19.905 21.1887 19.892 21.1838C19.837 21.1672 19.778 21.1507 19.723 21.1325C19.693 21.1292 19.664 21.1209 19.629 21.116C19.621 21.116 19.609 21.1127 19.596 21.1127C19.591 21.1127 19.574 21.1077 19.571 21.1077C19.528 21.1027 19.49 21.1077 19.447 21.1077C19.465 21.1887 19.371 21.2764 19.292 21.2301C19.278 21.2433 19.262 21.2565 19.249 21.2598C19.227 21.2731 19.206 21.2813 19.186 21.2813C19.151 21.3111 19.1 21.3243 19.058 21.3111C19.015 21.3359 18.982 21.3624 18.944 21.3954C18.842 21.4847 18.728 21.6617 18.792 21.794C18.85 21.9213 19.032 21.9841 19.159 21.9974C19.219 22.0007 19.283 21.9974 19.338 22.0007C19.397 22.0007 19.46 22.0056 19.52 21.9974C19.596 21.9874 19.659 21.9411 19.731 21.9114C19.778 21.8915 19.829 21.8783 19.879 21.87C19.908 21.8618 19.938 21.8568 19.956 21.8485C20.003 21.8155 20.052 21.7295 20.079 21.6699C20.125 21.5641 20.095 21.3789 20.044 21.2648Z" fill="#F5F5F5"/>
<path d="M18.6428 23.403C18.8248 23.4146 18.9308 23.5039 19.0368 23.6395C19.1098 23.7288 19.1378 23.7866 19.1588 23.8974C19.1808 23.995 19.2238 24.0843 19.2318 24.1819C19.2538 24.3803 19.2868 24.5837 19.2648 24.7822C19.2538 24.888 19.2318 24.9938 19.2238 25.1046C19.2188 25.1972 19.2058 25.2898 19.1858 25.3791C19.1428 25.561 19.0318 25.7214 18.9148 25.862C18.7998 25.9976 18.6518 26.0985 18.4648 26.0902C18.3008 26.0819 18.0708 26.0274 17.9698 25.8785C17.8778 25.7429 17.8648 25.5395 17.8298 25.3791C17.8098 25.2733 17.7828 25.1675 17.7748 25.0567C17.7668 24.9558 17.7748 24.85 17.7748 24.7491C17.7748 24.5407 17.7588 24.3456 17.8098 24.1438C17.8298 24.0463 17.8648 23.952 17.8858 23.8544C17.9078 23.7751 17.9358 23.699 17.9918 23.6428C18.0708 23.5584 18.1738 23.5287 18.2798 23.5121C18.3798 23.441 18.5028 23.3931 18.6428 23.403ZM18.7408 22.8259C18.9938 22.8259 18.9938 23.2244 18.7408 23.2244C18.4828 23.2244 18.4828 22.8259 18.7408 22.8259ZM17.1868 22.5729C16.9928 22.5729 16.7758 22.5844 16.5858 22.5166C16.3778 22.4455 16.2388 22.2769 16.1578 22.0768C16.0738 21.8651 16.1198 21.6799 16.2308 21.493C16.3398 21.3062 16.4968 21.1375 16.6918 21.0399C16.7758 20.9969 16.8658 20.9804 16.9548 20.9589C16.9668 20.9506 16.9828 20.939 17.0048 20.9341C17.2918 20.858 17.5718 20.777 17.8508 20.9341C18.0678 21.0531 18.1988 21.2764 18.2278 21.5178C18.2708 21.8949 18.0708 22.2719 17.7368 22.4455C17.5688 22.5348 17.3778 22.5762 17.1868 22.5729ZM18.2628 22.9367C18.2708 22.9499 18.2748 22.9664 18.2748 22.9879V23.021C18.2748 23.0425 18.2708 23.0673 18.2578 23.0888C18.2498 23.0971 18.2418 23.1053 18.2368 23.1136C18.2198 23.1318 18.1988 23.1434 18.1768 23.1483C18.1648 23.1516 18.1518 23.1516 18.1388 23.1566C18.1218 23.1566 18.1008 23.1516 18.0888 23.1434C18.0708 23.1401 18.0548 23.1268 18.0408 23.1136C18.0298 23.102 18.0218 23.0888 18.0168 23.0723C18.0078 23.0557 18.0028 23.0375 18.0028 23.021V22.9879C18.0028 22.9615 18.0128 22.94 18.0248 22.9201C18.0298 22.9119 18.0378 22.9019 18.0458 22.8904C18.0628 22.8738 18.0788 22.8639 18.1058 22.8556C18.1138 22.8556 18.1268 22.8523 18.1388 22.8523C18.1568 22.8523 18.1738 22.8556 18.1898 22.8639C18.2068 22.8689 18.2248 22.8771 18.2328 22.8904C18.2448 22.9019 18.2578 22.9201 18.2628 22.9367ZM20.3448 19.7021C20.1878 19.3466 20.0818 18.991 19.8028 18.6983C19.4848 18.3726 19.2018 18.1873 18.7358 18.2419C18.3128 18.2932 17.8978 18.437 17.5168 18.6272C17.2838 18.7463 17.1188 18.9282 16.9068 19.0721C16.8088 19.1349 16.6788 19.1729 16.5948 19.2407C16.3448 19.4524 16.2038 19.7616 16.1408 20.0791C16.1278 20.1304 16.0978 20.1684 16.0598 20.1932C16.0568 20.2065 16.0518 20.2147 16.0488 20.228C15.9838 20.3966 15.8828 20.557 15.8318 20.7356C15.7938 20.858 15.7688 20.9804 15.7348 21.1028C15.7308 21.2764 15.7558 21.4467 15.8188 21.5823C16.0018 21.9709 16.1658 22.3695 16.4158 22.7283C16.8658 23.3683 17.2078 24.1174 17.1908 24.9178C17.1828 25.4552 17.0128 26.3945 17.6358 26.6739C17.9948 26.836 18.5378 26.8608 18.9148 26.7417C19.2728 26.6326 19.4648 26.3184 19.6388 26.0059C19.8698 25.5858 20.0738 25.2402 20.0788 24.7491C20.0818 24.329 20.0568 23.9107 20.0738 23.4906C20.0898 23.0508 20.1578 22.5944 20.2438 22.1611C20.2608 22.0817 20.2768 21.9974 20.2938 21.9114C20.2608 21.9627 20.2228 22.0139 20.1848 22.052C20.0998 22.133 20.0058 22.1446 19.8998 22.1743C19.7828 22.1991 19.6888 22.2769 19.5658 22.2934C19.4308 22.3099 19.2778 22.305 19.1428 22.2934C19.0148 22.2802 18.8978 22.2504 18.7818 22.1958C18.5428 22.0768 18.4148 21.8486 18.4608 21.5823C18.5028 21.3491 18.6678 21.1805 18.8548 21.0482C18.8928 21.0184 18.9358 20.9936 18.9818 20.9688C19.0288 20.901 19.0998 20.8415 19.1808 20.8067C19.3498 20.7439 19.5408 20.7604 19.7148 20.7902C19.8668 20.815 20.0188 20.858 20.1548 20.9291C20.3068 21.0101 20.3698 21.1457 20.3998 21.3028C20.4078 21.1457 20.3998 20.9969 20.4078 20.8365C20.4338 20.4595 20.5018 20.0659 20.3448 19.7021Z" fill="#F5F5F5"/>
<path d="M17.0009 21.911C16.8359 21.911 16.8359 21.658 17.0009 21.658C17.1619 21.658 17.1619 21.911 17.0009 21.911ZM17.8019 21.5389C17.7969 21.5224 17.7919 21.5059 17.7839 21.4877C17.7839 21.4761 17.7799 21.4711 17.7799 21.4711C17.7799 21.4678 17.7749 21.4678 17.7719 21.4546C17.7669 21.4414 17.7589 21.4298 17.7499 21.4166C17.7419 21.4083 17.7449 21.4083 17.7419 21.4033C17.7339 21.3918 17.7209 21.3785 17.7069 21.3653C17.6829 21.3438 17.6399 21.314 17.5849 21.2892C17.5089 21.2595 17.4279 21.2677 17.3489 21.2859C17.2509 21.3025 17.1569 21.319 17.0609 21.3273C17.0559 21.3273 17.0559 21.324 17.0509 21.324C16.9749 21.3438 16.9039 21.362 16.8359 21.4C16.6869 21.4844 16.5809 21.6282 16.5099 21.7754C16.4889 21.8184 16.4839 21.8482 16.4919 21.8912C16.5049 21.954 16.5269 22.0003 16.5649 22.0549C16.6329 22.1491 16.7329 22.1872 16.8609 22.1988C16.9419 22.2037 17.0209 22.1988 17.1069 22.1988C17.1569 22.1988 17.2429 22.1955 17.2729 22.1905C17.4059 22.174 17.5089 22.1409 17.6099 22.0599C17.6149 22.0549 17.6359 22.0384 17.6359 22.0384C17.6449 22.0301 17.6559 22.0218 17.6659 22.0086C17.6739 22.0003 17.6829 21.9921 17.6909 21.9788C17.6959 21.9755 17.6959 21.9755 17.6989 21.9706V21.9672C17.7159 21.9408 17.7339 21.916 17.7499 21.8912C17.7539 21.8813 17.7589 21.873 17.7619 21.8647C17.7619 21.8647 17.7619 21.8614 17.7669 21.8565V21.8531C17.7669 21.8482 17.7719 21.8432 17.7719 21.8432C17.7839 21.8052 17.7919 21.7672 17.8019 21.7291V21.7175C17.8049 21.7126 17.8049 21.7126 17.8049 21.7043V21.658C17.8099 21.6282 17.8099 21.5985 17.8049 21.5687C17.8049 21.5638 17.8019 21.5472 17.8019 21.5389Z" fill="#F5F5F5"/>
<path d="M19.8435 21.4827C19.8435 21.5042 19.8395 21.5208 19.8395 21.5373C19.8395 21.5753 19.8315 21.6101 19.8145 21.6398C19.8015 21.6514 19.7935 21.6646 19.7805 21.6779C19.7555 21.7027 19.7285 21.7192 19.6955 21.7275C19.6795 21.7324 19.6575 21.7324 19.6415 21.7357C19.6145 21.7357 19.5905 21.7324 19.5635 21.7192C19.5435 21.7109 19.5225 21.6977 19.5005 21.6779C19.4845 21.6597 19.4715 21.6398 19.4625 21.6134C19.4495 21.5919 19.4465 21.5671 19.4465 21.5373C19.4415 21.5208 19.4415 21.5042 19.4375 21.4827C19.4375 21.448 19.4495 21.4149 19.4675 21.3802C19.4755 21.3686 19.4875 21.3554 19.4975 21.3389C19.5225 21.3124 19.5525 21.2959 19.5905 21.2876C19.6065 21.2876 19.6235 21.2843 19.6415 21.2793C19.6695 21.2793 19.6955 21.2843 19.7205 21.2959C19.7475 21.3041 19.7675 21.3223 19.7855 21.3389C19.8055 21.3604 19.8185 21.3802 19.8265 21.4067C19.8395 21.4315 19.8485 21.4563 19.8435 21.4827Z" fill="#FC4B2C"/>
<path d="M13.6369 35.3625C13.4829 35.4998 13.4349 35.68 13.3029 35.8388C13.1769 35.986 13.0799 36.1381 12.9719 36.2985C12.7769 36.5879 12.6199 36.8674 12.4859 37.1865C12.0779 38.149 11.8559 39.2139 11.7499 40.2458C11.6479 41.2529 11.6759 42.2699 11.7979 43.2753C11.8439 43.6623 12.0029 44.031 12.1239 44.3998C12.2279 44.7173 12.3419 44.9984 12.6219 45.1969C12.7719 45.3027 12.9089 45.0811 12.8069 44.9571C12.3599 44.423 12.2299 43.5399 12.1449 42.8768C12.0279 41.9358 12.1139 40.99 12.1999 40.0573C12.2429 39.5777 12.4179 39.113 12.5319 38.6451C12.6399 38.1986 12.7719 37.7389 12.9459 37.3139C13.0579 37.036 13.1479 36.7483 13.2809 36.4804C13.3789 36.2886 13.5009 36.1381 13.6169 35.9628C13.6979 35.8404 13.7409 35.6685 13.8419 35.5676C13.9759 35.4336 13.7739 35.2369 13.6369 35.3625Z" fill="#F5F5F5"/>
<path d="M21.3153 44.1078C21.2543 43.9838 21.2063 43.8532 21.1433 43.7308C21.0853 43.62 21.0243 43.5108 20.9743 43.3951C20.8773 43.1669 20.8003 42.9188 20.7763 42.6724C20.7623 42.5352 20.7563 42.4012 20.7313 42.2656C20.7083 42.1383 20.6733 42.011 20.6653 41.882C20.6433 41.5943 20.7543 41.3148 20.8093 41.037C20.8553 40.7939 20.4903 40.6864 20.4323 40.9328C20.3623 41.2371 20.2373 41.5364 20.2383 41.8539C20.2403 42.0027 20.2663 42.1532 20.2913 42.3004C20.3163 42.4492 20.3183 42.5997 20.3363 42.7485C20.3743 43.0346 20.4583 43.3058 20.5723 43.5687C20.6963 43.8532 20.8473 44.0797 21.0703 44.2947C21.2013 44.422 21.3923 44.2633 21.3153 44.1078Z" fill="#F5F5F5"/>
</svg>
