<svg width="1440" height="320" viewBox="0 0 1440 320" fill="none" xmlns="http://www.w3.org/2000/svg">
<path d="M0 96L26.7 85.3C53.3 75 107 53 160 53.3C213.3 53 267 75 320 106.7C373.3 139 427 181 480 181.3C533.3 181 587 139 640 106.7C693.3 75 747 53 800 74.7C853.3 96 907 160 960 160C1013.3 160 1067 96 1120 64C1173.3 32 1227 32 1280 42.7C1333.3 53 1387 75 1413 85.3L1440 96V320H1413.3C1386.7 320 1333 320 1280 320C1226.7 320 1173 320 1120 320C1066.7 320 1013 320 960 320C906.7 320 853 320 800 320C746.7 320 693 320 640 320C586.7 320 533 320 480 320C426.7 320 373 320 320 320C266.7 320 213 320 160 320C106.7 320 53 320 27 320H0V96Z" fill="#6C5838"/>
</svg>
