<svg width="1440" height="320" viewBox="0 0 1440 320" fill="none" xmlns="http://www.w3.org/2000/svg">
<path d="M0 224L26.7 240C53.3 256 107 288 160 277.3C213.3 267 267 213 320 176C373.3 139 427 117 480 144C533.3 171 587 245 640 256C693.3 267 747 213 800 181.3C853.3 149 907 139 960 138.7C1013.3 139 1067 149 1120 165.3C1173.3 181 1227 203 1280 181.3C1333.3 160 1387 96 1413 64L1440 32V320H1413.3C1386.7 320 1333 320 1280 320C1226.7 320 1173 320 1120 320C1066.7 320 1013 320 960 320C906.7 320 853 320 800 320C746.7 320 693 320 640 320C586.7 320 533 320 480 320C426.7 320 373 320 320 320C266.7 320 213 320 160 320C106.7 320 53 320 27 320H0V224Z" fill="#CECECE"/>
</svg>
