<svg width="1440" height="320" viewBox="0 0 1440 320" fill="none" xmlns="http://www.w3.org/2000/svg">
<path d="M0 64L26.7 80C53.3 96 107 128 160 165.3C213.3 203 267 245 320 234.7C373.3 224 427 160 480 154.7C533.3 149 587 203 640 192C693.3 181 747 107 800 106.7C853.3 107 907 181 960 192C1013.3 203 1067 149 1120 144C1173.3 139 1227 181 1280 197.3C1333.3 213 1387 203 1413 197.3L1440 192V320H1413.3C1386.7 320 1333 320 1280 320C1226.7 320 1173 320 1120 320C1066.7 320 1013 320 960 320C906.7 320 853 320 800 320C746.7 320 693 320 640 320C586.7 320 533 320 480 320C426.7 320 373 320 320 320C266.7 320 213 320 160 320C106.7 320 53 320 27 320H0V64Z" fill="#FF4C2C"/>
</svg>
